ply
format ascii 1.0
comment Created by Blender 2.69 (sub 0) - www.blender.org, source file: ''
element vertex 26
property float x
property float y
property float z
property float nx
property float ny
property float nz
property uchar red
property uchar green
property uchar blue
element face 12
property list uchar uint vertex_indices
end_header
1.000000 -1.000000 -1.000000 0.000000 -1.000000 0.000000 147 202 143
1.000000 -1.000000 1.000000 0.000000 -1.000000 0.000000 142 205 139
-1.000000 -1.000000 1.000000 0.000000 -1.000000 0.000000 145 203 141
1.000000 1.000000 -0.999999 -0.000000 1.000000 0.000000 250 0 255
-1.000000 1.000000 -1.000000 -0.000000 1.000000 0.000000 250 1 255
0.999999 1.000000 1.000001 -0.000000 1.000000 0.000000 250 0 255
1.000000 -1.000000 -1.000000 1.000000 -0.000000 0.000000 2 14 255
1.000000 1.000000 -0.999999 1.000000 -0.000000 0.000000 0 12 255
1.000000 -1.000000 1.000000 1.000000 -0.000000 0.000000 0 12 255
1.000000 -1.000000 1.000000 -0.000000 -0.000000 1.000000 255 0 90
0.999999 1.000000 1.000001 -0.000000 -0.000000 1.000000 255 0 90
-1.000000 -1.000000 1.000000 -0.000000 -0.000000 1.000000 255 0 90
-1.000000 -1.000000 1.000000 -1.000000 -0.000000 -0.000000 202 115 128
-1.000000 1.000000 1.000000 -1.000000 -0.000000 -0.000000 202 115 128
-1.000000 1.000000 -1.000000 -1.000000 -0.000000 -0.000000 202 115 128
1.000000 1.000000 -0.999999 0.000000 0.000000 -1.000000 201 228 255
1.000000 -1.000000 -1.000000 0.000000 0.000000 -1.000000 201 228 255
-1.000000 1.000000 -1.000000 0.000000 0.000000 -1.000000 201 228 255
-1.000000 -1.000000 -1.000000 0.000000 -1.000000 -0.000000 147 202 143
1.000000 1.000000 -0.999999 1.000000 0.000000 0.000001 0 12 255
0.999999 1.000000 1.000001 1.000000 0.000000 0.000001 0 12 255
1.000000 -1.000000 1.000000 1.000000 0.000000 0.000001 0 12 255
-1.000000 -1.000000 -1.000000 0.000000 0.000000 -1.000000 201 228 255
-1.000000 1.000000 1.000000 0.000000 1.000000 0.000000 250 0 255
-1.000000 -1.000000 -1.000000 -1.000000 -0.000000 -0.000000 221 165 174
-1.000000 1.000000 1.000000 -0.000000 0.000000 1.000000 255 0 90
3 0 1 2
3 3 4 5
3 6 7 8
3 9 10 11
3 12 13 14
3 15 16 17
3 18 0 2
3 19 20 21
3 16 22 17
3 4 23 5
3 24 12 14
3 10 25 11
