# Blender v2.69 (sub 0) OBJ File: ''
# www.blender.org
mtllib period.mtl
o Text
v 0.109000 0.111000 -0.000000
v 0.100887 0.110450 -0.000000
v 0.093097 0.108847 -0.000000
v 0.085703 0.106266 -0.000000
v 0.078778 0.102778 -0.000000
v 0.072394 0.098457 -0.000000
v 0.066625 0.093375 -0.000000
v 0.061543 0.087606 -0.000000
v 0.057222 0.081222 -0.000000
v 0.053734 0.074297 -0.000000
v 0.051153 0.066903 -0.000000
v 0.049550 0.059113 -0.000000
v 0.049000 0.051000 -0.000000
v 0.049550 0.042887 -0.000000
v 0.051153 0.035097 -0.000000
v 0.053734 0.027703 -0.000000
v 0.057222 0.020778 -0.000000
v 0.061543 0.014394 -0.000000
v 0.066625 0.008625 -0.000000
v 0.072394 0.003543 -0.000000
v 0.078778 -0.000778 0.000000
v 0.085703 -0.004266 0.000000
v 0.093097 -0.006847 0.000000
v 0.100887 -0.008450 0.000000
v 0.109000 -0.009000 0.000000
v 0.117113 -0.008450 0.000000
v 0.124903 -0.006847 0.000000
v 0.132297 -0.004266 0.000000
v 0.139222 -0.000778 0.000000
v 0.145606 0.003543 -0.000000
v 0.151375 0.008625 -0.000000
v 0.156457 0.014394 -0.000000
v 0.160778 0.020778 -0.000000
v 0.164266 0.027703 -0.000000
v 0.166847 0.035097 -0.000000
v 0.168450 0.042887 -0.000000
v 0.169000 0.051000 -0.000000
v 0.168450 0.059113 -0.000000
v 0.166847 0.066903 -0.000000
v 0.164266 0.074297 -0.000000
v 0.160778 0.081222 -0.000000
v 0.156457 0.087606 -0.000000
v 0.151375 0.093375 -0.000000
v 0.145606 0.098457 -0.000000
v 0.139222 0.102778 -0.000000
v 0.132297 0.106266 -0.000000
v 0.124903 0.108847 -0.000000
v 0.117113 0.110450 -0.000000
vn 0.000000 0.000000 1.000000
usemtl None
s off
f 2//1 48//1 1//1
f 3//1 48//1 2//1
f 3//1 47//1 48//1
f 4//1 47//1 3//1
f 4//1 46//1 47//1
f 5//1 46//1 4//1
f 5//1 45//1 46//1
f 6//1 45//1 5//1
f 6//1 44//1 45//1
f 7//1 44//1 6//1
f 7//1 43//1 44//1
f 8//1 43//1 7//1
f 8//1 42//1 43//1
f 9//1 42//1 8//1
f 9//1 41//1 42//1
f 10//1 41//1 9//1
f 10//1 40//1 41//1
f 11//1 40//1 10//1
f 11//1 39//1 40//1
f 12//1 39//1 11//1
f 12//1 38//1 39//1
f 12//1 37//1 38//1
f 13//1 37//1 12//1
f 14//1 37//1 13//1
f 14//1 36//1 37//1
f 15//1 36//1 14//1
f 15//1 35//1 36//1
f 16//1 35//1 15//1
f 16//1 34//1 35//1
f 17//1 34//1 16//1
f 17//1 33//1 34//1
f 18//1 33//1 17//1
f 18//1 32//1 33//1
f 19//1 32//1 18//1
f 19//1 31//1 32//1
f 20//1 31//1 19//1
f 20//1 30//1 31//1
f 21//1 30//1 20//1
f 21//1 29//1 30//1
f 22//1 29//1 21//1
f 22//1 28//1 29//1
f 23//1 28//1 22//1
f 23//1 27//1 28//1
f 24//1 27//1 23//1
f 24//1 26//1 27//1
f 25//1 26//1 24//1
