# Blender v2.69 (sub 0) OBJ File: ''
# www.blender.org
mtllib 3.mtl
o Text
v 0.081000 0.569000 -0.000000
v 0.092449 0.573982 -0.000000
v 0.103343 0.578440 -0.000000
v 0.113750 0.582391 -0.000000
v 0.123741 0.585852 -0.000000
v 0.133384 0.588841 -0.000000
v 0.142750 0.591375 -0.000000
v 0.151907 0.593472 -0.000000
v 0.160926 0.595148 -0.000000
v 0.169875 0.596422 -0.000000
v 0.178824 0.597310 -0.000000
v 0.187843 0.597830 -0.000000
v 0.197000 0.598000 -0.000000
v 0.214447 0.597196 -0.000000
v 0.230741 0.594819 -0.000000
v 0.245813 0.590922 -0.000000
v 0.259593 0.585556 -0.000000
v 0.272012 0.578773 -0.000000
v 0.283000 0.570625 -0.000000
v 0.292488 0.561165 -0.000000
v 0.300407 0.550444 -0.000000
v 0.306688 0.538516 -0.000000
v 0.311259 0.525431 -0.000000
v 0.314053 0.511241 -0.000000
v 0.315000 0.496000 -0.000000
v 0.314063 0.481028 -0.000000
v 0.311250 0.467139 -0.000000
v 0.306563 0.454375 -0.000000
v 0.300000 0.442778 -0.000000
v 0.291563 0.432389 -0.000000
v 0.281250 0.423250 -0.000000
v 0.269063 0.415403 -0.000000
v 0.255000 0.408889 -0.000000
v 0.239063 0.403750 -0.000000
v 0.221250 0.400028 -0.000000
v 0.201563 0.397764 -0.000000
v 0.180000 0.397000 -0.000000
v 0.180000 0.307000 -0.000000
v 0.203249 0.307087 -0.000000
v 0.224495 0.304944 -0.000000
v 0.243734 0.300719 -0.000000
v 0.260963 0.294556 -0.000000
v 0.276178 0.286601 -0.000000
v 0.289375 0.277000 -0.000000
v 0.300552 0.265899 -0.000000
v 0.309704 0.253444 -0.000000
v 0.316828 0.239781 -0.000000
v 0.321921 0.225056 -0.000000
v 0.324980 0.209413 -0.000000
v 0.326000 0.193000 -0.000000
v 0.325115 0.176991 -0.000000
v 0.322505 0.162009 -0.000000
v 0.318234 0.148125 -0.000000
v 0.312370 0.135407 -0.000000
v 0.304979 0.123926 -0.000000
v 0.296125 0.113750 -0.000000
v 0.285876 0.104949 -0.000000
v 0.274296 0.097593 -0.000000
v 0.261453 0.091750 -0.000000
v 0.247412 0.087491 -0.000000
v 0.232239 0.084884 -0.000000
v 0.216000 0.084000 -0.000000
v 0.203499 0.084355 -0.000000
v 0.190991 0.085421 -0.000000
v 0.178469 0.087203 -0.000000
v 0.165926 0.089704 -0.000000
v 0.153355 0.092927 -0.000000
v 0.140750 0.096875 -0.000000
v 0.128103 0.101553 -0.000000
v 0.115407 0.106963 -0.000000
v 0.102656 0.113109 -0.000000
v 0.089843 0.119995 -0.000000
v 0.076959 0.127624 -0.000000
v 0.064000 0.136000 -0.000000
v 0.064000 0.030000 -0.000000
v 0.076249 0.023981 -0.000000
v 0.088491 0.018431 -0.000000
v 0.100719 0.013359 -0.000000
v 0.112926 0.008778 -0.000000
v 0.125105 0.004696 -0.000000
v 0.137250 0.001125 -0.000000
v 0.149353 -0.001925 0.000000
v 0.161407 -0.004444 0.000000
v 0.173406 -0.006422 0.000000
v 0.185343 -0.007847 0.000000
v 0.197210 -0.008710 0.000000
v 0.209000 -0.009000 0.000000
v 0.239699 -0.007257 0.000000
v 0.268676 -0.002139 0.000000
v 0.295750 0.006188 -0.000000
v 0.320741 0.017556 -0.000000
v 0.343468 0.031799 -0.000000
v 0.363750 0.048750 -0.000000
v 0.381407 0.068243 -0.000000
v 0.396259 0.090111 -0.000000
v 0.408125 0.114188 -0.000000
v 0.416824 0.140306 -0.000000
v 0.422176 0.168299 -0.000000
v 0.424000 0.198000 -0.000000
v 0.423370 0.215491 -0.000000
v 0.421463 0.232847 -0.000000
v 0.418250 0.249891 -0.000000
v 0.413704 0.266444 -0.000000
v 0.407796 0.282332 -0.000000
v 0.400500 0.297375 -0.000000
v 0.391787 0.311398 -0.000000
v 0.381630 0.324222 -0.000000
v 0.370000 0.335672 -0.000000
v 0.356870 0.345569 -0.000000
v 0.342213 0.353738 -0.000000
v 0.326000 0.360000 -0.000000
v 0.340736 0.368701 -0.000000
v 0.353972 0.377861 -0.000000
v 0.365750 0.387563 -0.000000
v 0.376111 0.397889 -0.000000
v 0.385097 0.408924 -0.000000
v 0.392750 0.420750 -0.000000
v 0.399111 0.433451 -0.000000
v 0.404222 0.447111 -0.000000
v 0.408125 0.461813 -0.000000
v 0.410861 0.477639 -0.000000
v 0.412472 0.494674 -0.000000
v 0.413000 0.513000 -0.000000
v 0.411375 0.539190 -0.000000
v 0.406583 0.563685 -0.000000
v 0.398750 0.586375 -0.000000
v 0.388000 0.607148 -0.000000
v 0.374458 0.625894 -0.000000
v 0.358250 0.642500 -0.000000
v 0.339500 0.656857 -0.000000
v 0.318333 0.668852 -0.000000
v 0.294875 0.678375 -0.000000
v 0.269250 0.685315 -0.000000
v 0.241583 0.689560 -0.000000
v 0.212000 0.691000 -0.000000
v 0.199492 0.690811 -0.000000
v 0.187435 0.690241 -0.000000
v 0.175781 0.689281 -0.000000
v 0.164482 0.687926 -0.000000
v 0.153487 0.686168 -0.000000
v 0.142750 0.684000 -0.000000
v 0.132221 0.681415 -0.000000
v 0.121852 0.678407 -0.000000
v 0.111594 0.674969 -0.000000
v 0.101398 0.671093 -0.000000
v 0.091216 0.666772 -0.000000
v 0.081000 0.662000 -0.000000
vn 0.000000 0.000000 1.000000
usemtl None
s off
f 136//1 134//1 135//1
f 137//1 134//1 136//1
f 138//1 134//1 137//1
f 138//1 133//1 134//1
f 139//1 133//1 138//1
f 140//1 133//1 139//1
f 141//1 133//1 140//1
f 141//1 132//1 133//1
f 142//1 132//1 141//1
f 143//1 132//1 142//1
f 144//1 132//1 143//1
f 144//1 131//1 132//1
f 145//1 131//1 144//1
f 146//1 131//1 145//1
f 146//1 130//1 131//1
f 147//1 130//1 146//1
f 1//1 2//1 147//1
f 2//1 3//1 147//1
f 3//1 4//1 147//1
f 4//1 5//1 147//1
f 5//1 130//1 147//1
f 5//1 6//1 130//1
f 6//1 7//1 130//1
f 7//1 129//1 130//1
f 7//1 8//1 129//1
f 8//1 9//1 129//1
f 9//1 128//1 129//1
f 9//1 10//1 128//1
f 10//1 11//1 128//1
f 11//1 12//1 128//1
f 12//1 127//1 128//1
f 12//1 13//1 127//1
f 13//1 14//1 127//1
f 14//1 126//1 127//1
f 15//1 126//1 14//1
f 16//1 126//1 15//1
f 17//1 126//1 16//1
f 17//1 125//1 126//1
f 18//1 125//1 17//1
f 19//1 125//1 18//1
f 20//1 125//1 19//1
f 20//1 124//1 125//1
f 21//1 124//1 20//1
f 22//1 124//1 21//1
f 22//1 123//1 124//1
f 23//1 123//1 22//1
f 24//1 123//1 23//1
f 24//1 122//1 123//1
f 25//1 122//1 24//1
f 26//1 122//1 25//1
f 26//1 121//1 122//1
f 27//1 121//1 26//1
f 27//1 120//1 121//1
f 28//1 120//1 27//1
f 28//1 119//1 120//1
f 29//1 119//1 28//1
f 29//1 118//1 119//1
f 30//1 118//1 29//1
f 30//1 117//1 118//1
f 31//1 117//1 30//1
f 32//1 117//1 31//1
f 32//1 116//1 117//1
f 33//1 116//1 32//1
f 33//1 115//1 116//1
f 34//1 115//1 33//1
f 35//1 115//1 34//1
f 36//1 115//1 35//1
f 36//1 114//1 115//1
f 37//1 114//1 36//1
f 38//1 114//1 37//1
f 38//1 113//1 114//1
f 38//1 112//1 113//1
f 38//1 111//1 112//1
f 38//1 110//1 111//1
f 38//1 109//1 110//1
f 38//1 108//1 109//1
f 38//1 107//1 108//1
f 38//1 106//1 107//1
f 38//1 39//1 106//1
f 39//1 105//1 106//1
f 40//1 105//1 39//1
f 41//1 105//1 40//1
f 42//1 105//1 41//1
f 42//1 104//1 105//1
f 43//1 104//1 42//1
f 44//1 104//1 43//1
f 44//1 103//1 104//1
f 45//1 103//1 44//1
f 45//1 102//1 103//1
f 46//1 102//1 45//1
f 47//1 102//1 46//1
f 47//1 101//1 102//1
f 48//1 101//1 47//1
f 48//1 100//1 101//1
f 49//1 100//1 48//1
f 49//1 99//1 100//1
f 50//1 99//1 49//1
f 50//1 98//1 99//1
f 51//1 98//1 50//1
f 52//1 98//1 51//1
f 52//1 97//1 98//1
f 53//1 97//1 52//1
f 54//1 97//1 53//1
f 54//1 96//1 97//1
f 75//1 73//1 74//1
f 55//1 96//1 54//1
f 75//1 72//1 73//1
f 56//1 96//1 55//1
f 75//1 71//1 72//1
f 56//1 95//1 96//1
f 57//1 95//1 56//1
f 75//1 70//1 71//1
f 75//1 69//1 70//1
f 58//1 95//1 57//1
f 75//1 68//1 69//1
f 59//1 95//1 58//1
f 75//1 67//1 68//1
f 75//1 66//1 67//1
f 60//1 95//1 59//1
f 60//1 94//1 95//1
f 75//1 65//1 66//1
f 61//1 94//1 60//1
f 75//1 64//1 65//1
f 75//1 63//1 64//1
f 62//1 94//1 61//1
f 75//1 62//1 63//1
f 75//1 94//1 62//1
f 75//1 93//1 94//1
f 75//1 92//1 93//1
f 75//1 91//1 92//1
f 76//1 91//1 75//1
f 77//1 91//1 76//1
f 78//1 91//1 77//1
f 78//1 90//1 91//1
f 79//1 90//1 78//1
f 80//1 90//1 79//1
f 80//1 89//1 90//1
f 81//1 89//1 80//1
f 82//1 89//1 81//1
f 83//1 89//1 82//1
f 83//1 88//1 89//1
f 84//1 88//1 83//1
f 85//1 88//1 84//1
f 85//1 87//1 88//1
f 86//1 87//1 85//1
