# Blender v2.69 (sub 0) OBJ File: ''
# www.blender.org
mtllib 8.mtl
o Text
v 0.468000 0.184000 -0.000000
v 0.467334 0.201091 -0.000000
v 0.465338 0.217815 -0.000000
v 0.462016 0.234094 -0.000000
v 0.457370 0.249852 -0.000000
v 0.451406 0.265013 -0.000000
v 0.444125 0.279500 -0.000000
v 0.435532 0.293237 -0.000000
v 0.425630 0.306148 -0.000000
v 0.414422 0.318156 -0.000000
v 0.401912 0.329185 -0.000000
v 0.388104 0.339159 -0.000000
v 0.373000 0.348000 -0.000000
v 0.386856 0.357862 -0.000000
v 0.399435 0.368394 -0.000000
v 0.410750 0.379516 -0.000000
v 0.420815 0.391148 -0.000000
v 0.429644 0.403211 -0.000000
v 0.437250 0.415625 -0.000000
v 0.443648 0.428310 -0.000000
v 0.448852 0.441185 -0.000000
v 0.452875 0.454172 -0.000000
v 0.455731 0.467190 -0.000000
v 0.457435 0.480159 -0.000000
v 0.458000 0.493000 -0.000000
v 0.456241 0.520634 -0.000000
v 0.451097 0.546903 -0.000000
v 0.442766 0.571609 -0.000000
v 0.431444 0.594556 -0.000000
v 0.417332 0.615543 -0.000000
v 0.400625 0.634375 -0.000000
v 0.381523 0.650852 -0.000000
v 0.360222 0.664778 -0.000000
v 0.336922 0.675953 -0.000000
v 0.311819 0.684181 -0.000000
v 0.285113 0.689262 -0.000000
v 0.257000 0.691000 -0.000000
v 0.227889 0.689282 -0.000000
v 0.200199 0.684259 -0.000000
v 0.174141 0.676125 -0.000000
v 0.149926 0.665074 -0.000000
v 0.127767 0.651301 -0.000000
v 0.107875 0.635000 -0.000000
v 0.090462 0.616366 -0.000000
v 0.075741 0.595593 -0.000000
v 0.063922 0.572875 -0.000000
v 0.055218 0.548407 -0.000000
v 0.049840 0.522384 -0.000000
v 0.048000 0.495000 -0.000000
v 0.048620 0.480630 -0.000000
v 0.050458 0.466542 -0.000000
v 0.053484 0.452766 -0.000000
v 0.057667 0.439333 -0.000000
v 0.062974 0.426276 -0.000000
v 0.069375 0.413625 -0.000000
v 0.076839 0.401412 -0.000000
v 0.085333 0.389667 -0.000000
v 0.094828 0.378422 -0.000000
v 0.105292 0.367708 -0.000000
v 0.116693 0.357557 -0.000000
v 0.129000 0.348000 -0.000000
v 0.113437 0.338185 -0.000000
v 0.099245 0.327731 -0.000000
v 0.086422 0.316625 -0.000000
v 0.074963 0.304852 -0.000000
v 0.064865 0.292398 -0.000000
v 0.056125 0.279250 -0.000000
v 0.048739 0.265394 -0.000000
v 0.042704 0.250815 -0.000000
v 0.038016 0.235500 -0.000000
v 0.034671 0.219435 -0.000000
v 0.032667 0.202606 -0.000000
v 0.032000 0.185000 -0.000000
v 0.033961 0.158285 -0.000000
v 0.039685 0.132782 -0.000000
v 0.048937 0.108703 -0.000000
v 0.061481 0.086259 -0.000000
v 0.077081 0.065663 -0.000000
v 0.095500 0.047125 -0.000000
v 0.116502 0.030858 -0.000000
v 0.139852 0.017074 -0.000000
v 0.165312 0.005984 -0.000000
v 0.192648 -0.002199 0.000000
v 0.221623 -0.007264 0.000000
v 0.252000 -0.009000 0.000000
v 0.281878 -0.007284 0.000000
v 0.310361 -0.002273 0.000000
v 0.337219 0.005828 -0.000000
v 0.362222 0.016815 -0.000000
v 0.385142 0.030482 -0.000000
v 0.405750 0.046625 -0.000000
v 0.423816 0.065039 -0.000000
v 0.439111 0.085519 -0.000000
v 0.451406 0.107859 -0.000000
v 0.460472 0.131857 -0.000000
v 0.466080 0.157305 -0.000000
v 0.360000 0.495000 -0.000000
v 0.359021 0.481439 -0.000000
v 0.356171 0.468347 -0.000000
v 0.351578 0.455859 -0.000000
v 0.345370 0.444111 -0.000000
v 0.337677 0.433238 -0.000000
v 0.328625 0.423375 -0.000000
v 0.318344 0.414658 -0.000000
v 0.306963 0.407222 -0.000000
v 0.294609 0.401203 -0.000000
v 0.281412 0.396736 -0.000000
v 0.267499 0.393957 -0.000000
v 0.253000 0.393000 -0.000000
v 0.238711 0.393977 -0.000000
v 0.224935 0.396815 -0.000000
v 0.211813 0.401375 -0.000000
v 0.199481 0.407519 -0.000000
v 0.188081 0.415106 -0.000000
v 0.177750 0.424000 -0.000000
v 0.168627 0.434060 -0.000000
v 0.160852 0.445148 -0.000000
v 0.154563 0.457125 -0.000000
v 0.149898 0.469852 -0.000000
v 0.146998 0.483190 -0.000000
v 0.146000 0.497000 -0.000000
v 0.146903 0.511802 -0.000000
v 0.149560 0.525662 -0.000000
v 0.153891 0.538516 -0.000000
v 0.159815 0.550296 -0.000000
v 0.167253 0.560938 -0.000000
v 0.176125 0.570375 -0.000000
v 0.186351 0.578541 -0.000000
v 0.197852 0.585370 -0.000000
v 0.210547 0.590797 -0.000000
v 0.224357 0.594755 -0.000000
v 0.239201 0.597178 -0.000000
v 0.255000 0.598000 -0.000000
v 0.269880 0.597100 -0.000000
v 0.283958 0.594468 -0.000000
v 0.297141 0.590203 -0.000000
v 0.309333 0.584407 -0.000000
v 0.320443 0.577181 -0.000000
v 0.330375 0.568625 -0.000000
v 0.339036 0.558840 -0.000000
v 0.346333 0.547926 -0.000000
v 0.352172 0.535984 -0.000000
v 0.356458 0.523116 -0.000000
v 0.359099 0.509421 -0.000000
v 0.370000 0.192000 -0.000000
v 0.369148 0.177901 -0.000000
v 0.366597 0.164208 -0.000000
v 0.362359 0.151078 -0.000000
v 0.356444 0.138667 -0.000000
v 0.348863 0.127130 -0.000000
v 0.339625 0.116625 -0.000000
v 0.328741 0.107307 -0.000000
v 0.316222 0.099333 -0.000000
v 0.302078 0.092859 -0.000000
v 0.286319 0.088042 -0.000000
v 0.268957 0.085036 -0.000000
v 0.250000 0.084000 -0.000000
v 0.232934 0.084922 -0.000000
v 0.216806 0.087625 -0.000000
v 0.201719 0.092016 -0.000000
v 0.187778 0.098000 -0.000000
v 0.175087 0.105484 -0.000000
v 0.163750 0.114375 -0.000000
v 0.153872 0.124578 -0.000000
v 0.145556 0.136000 -0.000000
v 0.138906 0.148547 -0.000000
v 0.134028 0.162125 -0.000000
v 0.131024 0.176641 -0.000000
v 0.130000 0.192000 -0.000000
v 0.130987 0.207569 -0.000000
v 0.133898 0.222222 -0.000000
v 0.138656 0.235875 -0.000000
v 0.145185 0.248444 -0.000000
v 0.153409 0.259847 -0.000000
v 0.163250 0.270000 -0.000000
v 0.174633 0.278819 -0.000000
v 0.187481 0.286222 -0.000000
v 0.201719 0.292125 -0.000000
v 0.217269 0.296444 -0.000000
v 0.234054 0.299097 -0.000000
v 0.252000 0.300000 -0.000000
v 0.268817 0.299059 -0.000000
v 0.284699 0.296306 -0.000000
v 0.299547 0.291844 -0.000000
v 0.313259 0.285778 -0.000000
v 0.325736 0.278212 -0.000000
v 0.336875 0.269250 -0.000000
v 0.346577 0.258997 -0.000000
v 0.354741 0.247556 -0.000000
v 0.361266 0.235031 -0.000000
v 0.366051 0.221528 -0.000000
v 0.368996 0.207149 -0.000000
vn 0.000000 0.000000 1.000000
usemtl None
s off
f 38//1 36//1 37//1
f 39//1 36//1 38//1
f 39//1 35//1 36//1
f 40//1 35//1 39//1
f 40//1 34//1 35//1
f 41//1 34//1 40//1
f 41//1 33//1 34//1
f 42//1 33//1 41//1
f 42//1 32//1 33//1
f 43//1 32//1 42//1
f 43//1 31//1 32//1
f 44//1 31//1 43//1
f 44//1 30//1 31//1
f 45//1 30//1 44//1
f 45//1 133//1 30//1
f 133//1 29//1 30//1
f 45//1 132//1 133//1
f 134//1 29//1 133//1
f 45//1 131//1 132//1
f 135//1 29//1 134//1
f 46//1 131//1 45//1
f 46//1 130//1 131//1
f 135//1 28//1 29//1
f 136//1 28//1 135//1
f 46//1 129//1 130//1
f 137//1 28//1 136//1
f 46//1 128//1 129//1
f 138//1 28//1 137//1
f 46//1 127//1 128//1
f 139//1 28//1 138//1
f 47//1 127//1 46//1
f 139//1 27//1 28//1
f 47//1 126//1 127//1
f 140//1 27//1 139//1
f 47//1 125//1 126//1
f 141//1 27//1 140//1
f 47//1 124//1 125//1
f 48//1 124//1 47//1
f 142//1 27//1 141//1
f 142//1 26//1 27//1
f 48//1 123//1 124//1
f 143//1 26//1 142//1
f 48//1 122//1 123//1
f 144//1 26//1 143//1
f 49//1 122//1 48//1
f 144//1 25//1 26//1
f 49//1 121//1 122//1
f 97//1 25//1 144//1
f 49//1 120//1 121//1
f 50//1 120//1 49//1
f 98//1 25//1 97//1
f 98//1 24//1 25//1
f 50//1 119//1 120//1
f 99//1 24//1 98//1
f 51//1 119//1 50//1
f 99//1 23//1 24//1
f 51//1 118//1 119//1
f 100//1 23//1 99//1
f 100//1 22//1 23//1
f 52//1 118//1 51//1
f 52//1 117//1 118//1
f 101//1 22//1 100//1
f 101//1 21//1 22//1
f 53//1 117//1 52//1
f 53//1 116//1 117//1
f 102//1 21//1 101//1
f 102//1 20//1 21//1
f 54//1 116//1 53//1
f 54//1 115//1 116//1
f 103//1 20//1 102//1
f 103//1 19//1 20//1
f 55//1 115//1 54//1
f 55//1 114//1 115//1
f 104//1 19//1 103//1
f 104//1 18//1 19//1
f 55//1 113//1 114//1
f 105//1 18//1 104//1
f 56//1 113//1 55//1
f 56//1 112//1 113//1
f 106//1 18//1 105//1
f 106//1 17//1 18//1
f 57//1 112//1 56//1
f 57//1 111//1 112//1
f 107//1 17//1 106//1
f 57//1 110//1 111//1
f 108//1 17//1 107//1
f 57//1 109//1 110//1
f 109//1 17//1 108//1
f 57//1 17//1 109//1
f 57//1 16//1 17//1
f 58//1 16//1 57//1
f 58//1 15//1 16//1
f 59//1 15//1 58//1
f 59//1 14//1 15//1
f 60//1 14//1 59//1
f 60//1 13//1 14//1
f 61//1 13//1 60//1
f 62//1 13//1 61//1
f 62//1 12//1 13//1
f 62//1 11//1 12//1
f 63//1 11//1 62//1
f 63//1 10//1 11//1
f 64//1 10//1 63//1
f 64//1 9//1 10//1
f 65//1 9//1 64//1
f 65//1 181//1 9//1
f 181//1 8//1 9//1
f 66//1 181//1 65//1
f 66//1 180//1 181//1
f 182//1 8//1 181//1
f 66//1 179//1 180//1
f 183//1 8//1 182//1
f 66//1 178//1 179//1
f 184//1 8//1 183//1
f 184//1 7//1 8//1
f 67//1 178//1 66//1
f 67//1 177//1 178//1
f 185//1 7//1 184//1
f 67//1 176//1 177//1
f 186//1 7//1 185//1
f 186//1 6//1 7//1
f 68//1 176//1 67//1
f 68//1 175//1 176//1
f 187//1 6//1 186//1
f 68//1 174//1 175//1
f 188//1 6//1 187//1
f 69//1 174//1 68//1
f 188//1 5//1 6//1
f 69//1 173//1 174//1
f 189//1 5//1 188//1
f 70//1 173//1 69//1
f 189//1 4//1 5//1
f 70//1 172//1 173//1
f 190//1 4//1 189//1
f 70//1 171//1 172//1
f 71//1 171//1 70//1
f 191//1 4//1 190//1
f 191//1 3//1 4//1
f 71//1 170//1 171//1
f 192//1 3//1 191//1
f 72//1 170//1 71//1
f 192//1 2//1 3//1
f 72//1 169//1 170//1
f 145//1 2//1 192//1
f 73//1 169//1 72//1
f 145//1 1//1 2//1
f 73//1 168//1 169//1
f 146//1 1//1 145//1
f 74//1 168//1 73//1
f 146//1 96//1 1//1
f 147//1 96//1 146//1
f 74//1 167//1 168//1
f 148//1 96//1 147//1
f 74//1 166//1 167//1
f 75//1 166//1 74//1
f 148//1 95//1 96//1
f 149//1 95//1 148//1
f 75//1 165//1 166//1
f 150//1 95//1 149//1
f 75//1 164//1 165//1
f 76//1 164//1 75//1
f 150//1 94//1 95//1
f 151//1 94//1 150//1
f 76//1 163//1 164//1
f 152//1 94//1 151//1
f 76//1 162//1 163//1
f 77//1 162//1 76//1
f 152//1 93//1 94//1
f 153//1 93//1 152//1
f 77//1 161//1 162//1
f 154//1 93//1 153//1
f 77//1 160//1 161//1
f 155//1 93//1 154//1
f 77//1 159//1 160//1
f 156//1 93//1 155//1
f 77//1 158//1 159//1
f 78//1 158//1 77//1
f 156//1 92//1 93//1
f 157//1 92//1 156//1
f 78//1 157//1 158//1
f 78//1 92//1 157//1
f 79//1 92//1 78//1
f 79//1 91//1 92//1
f 80//1 91//1 79//1
f 80//1 90//1 91//1
f 81//1 90//1 80//1
f 81//1 89//1 90//1
f 82//1 89//1 81//1
f 82//1 88//1 89//1
f 83//1 88//1 82//1
f 83//1 87//1 88//1
f 84//1 87//1 83//1
f 84//1 86//1 87//1
f 85//1 86//1 84//1
