# Blender v2.69 (sub 0) OBJ File: ''
# www.blender.org
mtllib G.mtl
o Text
v 0.673000 0.336000 -0.000000
v 0.444000 0.336000 -0.000000
v 0.444000 0.248000 -0.000000
v 0.575000 0.248000 -0.000000
v 0.575000 0.108000 -0.000000
v 0.563227 0.104318 -0.000000
v 0.551398 0.100792 -0.000000
v 0.539500 0.097453 -0.000000
v 0.527519 0.094333 -0.000000
v 0.515440 0.091464 -0.000000
v 0.503250 0.088875 -0.000000
v 0.490935 0.086599 -0.000000
v 0.478481 0.084667 -0.000000
v 0.465875 0.083109 -0.000000
v 0.453102 0.081958 -0.000000
v 0.440148 0.081245 -0.000000
v 0.427000 0.081000 -0.000000
v 0.387538 0.083193 -0.000000
v 0.350306 0.089630 -0.000000
v 0.315531 0.100094 -0.000000
v 0.283444 0.114370 -0.000000
v 0.254274 0.132244 -0.000000
v 0.228250 0.153500 -0.000000
v 0.205601 0.177922 -0.000000
v 0.186556 0.205296 -0.000000
v 0.171344 0.235406 -0.000000
v 0.160194 0.268037 -0.000000
v 0.153337 0.302973 -0.000000
v 0.151000 0.340000 -0.000000
v 0.153348 0.376226 -0.000000
v 0.160204 0.410722 -0.000000
v 0.171281 0.443219 -0.000000
v 0.186296 0.473444 -0.000000
v 0.204964 0.501129 -0.000000
v 0.227000 0.526000 -0.000000
v 0.252119 0.547788 -0.000000
v 0.280037 0.566222 -0.000000
v 0.310469 0.581031 -0.000000
v 0.343130 0.591945 -0.000000
v 0.377735 0.598691 -0.000000
v 0.414000 0.601000 -0.000000
v 0.434519 0.600522 -0.000000
v 0.455065 0.599093 -0.000000
v 0.475625 0.596719 -0.000000
v 0.496185 0.593407 -0.000000
v 0.516732 0.589166 -0.000000
v 0.537250 0.584000 -0.000000
v 0.557727 0.577918 -0.000000
v 0.578148 0.570926 -0.000000
v 0.598500 0.563031 -0.000000
v 0.618769 0.554241 -0.000000
v 0.638940 0.544561 -0.000000
v 0.659000 0.534000 -0.000000
v 0.659000 0.633000 -0.000000
v 0.633269 0.643594 -0.000000
v 0.609403 0.652921 -0.000000
v 0.587141 0.661047 -0.000000
v 0.566222 0.668037 -0.000000
v 0.546387 0.673958 -0.000000
v 0.527375 0.678875 -0.000000
v 0.508925 0.682855 -0.000000
v 0.490778 0.685963 -0.000000
v 0.472672 0.688266 -0.000000
v 0.454347 0.689829 -0.000000
v 0.435543 0.690718 -0.000000
v 0.416000 0.691000 -0.000000
v 0.365104 0.687873 -0.000000
v 0.316667 0.678736 -0.000000
v 0.271062 0.663953 -0.000000
v 0.228667 0.643889 -0.000000
v 0.189854 0.618908 -0.000000
v 0.155000 0.589375 -0.000000
v 0.124479 0.555655 -0.000000
v 0.098667 0.518111 -0.000000
v 0.077937 0.477109 -0.000000
v 0.062667 0.433014 -0.000000
v 0.053229 0.386189 -0.000000
v 0.050000 0.337000 -0.000000
v 0.053151 0.288178 -0.000000
v 0.062375 0.241926 -0.000000
v 0.077328 0.198563 -0.000000
v 0.097667 0.158407 -0.000000
v 0.123047 0.121780 -0.000000
v 0.153125 0.089000 -0.000000
v 0.187557 0.060387 -0.000000
v 0.226000 0.036259 -0.000000
v 0.268109 0.016938 -0.000000
v 0.313542 0.002741 -0.000000
v 0.361953 -0.006011 0.000000
v 0.413000 -0.009000 0.000000
v 0.436335 -0.008662 0.000000
v 0.458926 -0.007630 0.000000
v 0.480906 -0.005875 0.000000
v 0.502407 -0.003370 0.000000
v 0.523561 -0.000088 0.000000
v 0.544500 0.004000 -0.000000
v 0.565355 0.008921 -0.000000
v 0.586259 0.014704 -0.000000
v 0.607344 0.021375 -0.000000
v 0.628741 0.028963 -0.000000
v 0.650582 0.037495 -0.000000
v 0.673000 0.047000 -0.000000
vn 0.000000 0.000000 1.000000
usemtl None
s off
f 67//1 65//1 66//1
f 67//1 64//1 65//1
f 67//1 63//1 64//1
f 67//1 62//1 63//1
f 68//1 62//1 67//1
f 68//1 61//1 62//1
f 68//1 60//1 61//1
f 68//1 59//1 60//1
f 69//1 59//1 68//1
f 69//1 58//1 59//1
f 69//1 57//1 58//1
f 70//1 57//1 69//1
f 70//1 56//1 57//1
f 70//1 55//1 56//1
f 71//1 55//1 70//1
f 71//1 54//1 55//1
f 71//1 43//1 54//1
f 43//1 44//1 54//1
f 44//1 45//1 54//1
f 45//1 46//1 54//1
f 46//1 47//1 54//1
f 47//1 48//1 54//1
f 48//1 49//1 54//1
f 49//1 50//1 54//1
f 50//1 51//1 54//1
f 51//1 52//1 54//1
f 52//1 53//1 54//1
f 72//1 41//1 71//1
f 41//1 42//1 71//1
f 42//1 43//1 71//1
f 72//1 40//1 41//1
f 72//1 39//1 40//1
f 72//1 38//1 39//1
f 73//1 38//1 72//1
f 73//1 37//1 38//1
f 73//1 36//1 37//1
f 74//1 36//1 73//1
f 74//1 35//1 36//1
f 74//1 34//1 35//1
f 75//1 34//1 74//1
f 75//1 33//1 34//1
f 76//1 33//1 75//1
f 76//1 32//1 33//1
f 76//1 31//1 32//1
f 77//1 31//1 76//1
f 77//1 30//1 31//1
f 78//1 30//1 77//1
f 78//1 29//1 30//1
f 78//1 28//1 29//1
f 79//1 28//1 78//1
f 3//1 1//1 2//1
f 3//1 4//1 1//1
f 4//1 102//1 1//1
f 79//1 27//1 28//1
f 80//1 27//1 79//1
f 80//1 26//1 27//1
f 5//1 102//1 4//1
f 81//1 26//1 80//1
f 81//1 25//1 26//1
f 81//1 24//1 25//1
f 82//1 24//1 81//1
f 82//1 23//1 24//1
f 83//1 23//1 82//1
f 83//1 22//1 23//1
f 83//1 21//1 22//1
f 84//1 21//1 83//1
f 84//1 20//1 21//1
f 6//1 102//1 5//1
f 7//1 102//1 6//1
f 8//1 102//1 7//1
f 84//1 19//1 20//1
f 9//1 102//1 8//1
f 10//1 102//1 9//1
f 11//1 102//1 10//1
f 84//1 18//1 19//1
f 85//1 18//1 84//1
f 12//1 102//1 11//1
f 13//1 102//1 12//1
f 14//1 102//1 13//1
f 85//1 17//1 18//1
f 15//1 102//1 14//1
f 16//1 102//1 15//1
f 17//1 102//1 16//1
f 85//1 102//1 17//1
f 86//1 102//1 85//1
f 86//1 101//1 102//1
f 86//1 100//1 101//1
f 87//1 100//1 86//1
f 87//1 99//1 100//1
f 87//1 98//1 99//1
f 88//1 98//1 87//1
f 88//1 97//1 98//1
f 88//1 96//1 97//1
f 88//1 95//1 96//1
f 89//1 95//1 88//1
f 89//1 94//1 95//1
f 89//1 93//1 94//1
f 89//1 92//1 93//1
f 90//1 92//1 89//1
f 90//1 91//1 92//1
