# Blender v2.69 (sub 0) OBJ File: ''
# www.blender.org
mtllib O.mtl
o Text
v 0.045000 0.341000 -0.000000
v 0.047903 0.295251 -0.000000
v 0.056477 0.250838 -0.000000
v 0.070516 0.208266 -0.000000
v 0.089815 0.168037 -0.000000
v 0.114170 0.130656 -0.000000
v 0.143375 0.096625 -0.000000
v 0.177226 0.066448 -0.000000
v 0.215519 0.040630 -0.000000
v 0.258047 0.019672 -0.000000
v 0.304606 0.004079 -0.000000
v 0.354992 -0.005646 0.000000
v 0.409000 -0.009000 0.000000
v 0.464786 -0.005627 0.000000
v 0.516542 0.004148 -0.000000
v 0.564109 0.019813 -0.000000
v 0.607333 0.040852 -0.000000
v 0.646057 0.066752 -0.000000
v 0.680125 0.097000 -0.000000
v 0.709380 0.131081 -0.000000
v 0.733667 0.168481 -0.000000
v 0.752828 0.208688 -0.000000
v 0.766708 0.251185 -0.000000
v 0.775151 0.295461 -0.000000
v 0.778000 0.341000 -0.000000
v 0.775076 0.387800 -0.000000
v 0.766440 0.432898 -0.000000
v 0.752297 0.475844 -0.000000
v 0.732852 0.516185 -0.000000
v 0.708310 0.553471 -0.000000
v 0.678875 0.587250 -0.000000
v 0.644753 0.617071 -0.000000
v 0.606148 0.642482 -0.000000
v 0.563266 0.663031 -0.000000
v 0.516310 0.678269 -0.000000
v 0.465487 0.687742 -0.000000
v 0.411000 0.691000 -0.000000
v 0.357373 0.687723 -0.000000
v 0.307153 0.678199 -0.000000
v 0.260578 0.662891 -0.000000
v 0.217889 0.642259 -0.000000
v 0.179325 0.616767 -0.000000
v 0.145125 0.586875 -0.000000
v 0.115530 0.553046 -0.000000
v 0.090778 0.515741 -0.000000
v 0.071109 0.475422 -0.000000
v 0.056764 0.432551 -0.000000
v 0.047981 0.387590 -0.000000
v 0.146000 0.341000 -0.000000
v 0.148311 0.377626 -0.000000
v 0.155074 0.412343 -0.000000
v 0.166031 0.444906 -0.000000
v 0.180926 0.475074 -0.000000
v 0.199501 0.502603 -0.000000
v 0.221500 0.527250 -0.000000
v 0.246666 0.548772 -0.000000
v 0.274741 0.566926 -0.000000
v 0.305469 0.581469 -0.000000
v 0.338593 0.592157 -0.000000
v 0.373855 0.598749 -0.000000
v 0.411000 0.601000 -0.000000
v 0.448374 0.598749 -0.000000
v 0.483829 0.592157 -0.000000
v 0.517109 0.581469 -0.000000
v 0.547963 0.566926 -0.000000
v 0.576136 0.548772 -0.000000
v 0.601375 0.527250 -0.000000
v 0.623426 0.502603 -0.000000
v 0.642037 0.475074 -0.000000
v 0.656953 0.444906 -0.000000
v 0.667921 0.412343 -0.000000
v 0.674688 0.377626 -0.000000
v 0.677000 0.341000 -0.000000
v 0.674688 0.304584 -0.000000
v 0.667921 0.270005 -0.000000
v 0.656953 0.237516 -0.000000
v 0.642037 0.207370 -0.000000
v 0.623427 0.179822 -0.000000
v 0.601375 0.155125 -0.000000
v 0.576136 0.133532 -0.000000
v 0.547963 0.115296 -0.000000
v 0.517109 0.100672 -0.000000
v 0.483829 0.089912 -0.000000
v 0.448375 0.083270 -0.000000
v 0.411000 0.081000 -0.000000
v 0.373855 0.083270 -0.000000
v 0.338593 0.089912 -0.000000
v 0.305469 0.100672 -0.000000
v 0.274741 0.115296 -0.000000
v 0.246666 0.133532 -0.000000
v 0.221500 0.155125 -0.000000
v 0.199501 0.179822 -0.000000
v 0.180926 0.207370 -0.000000
v 0.166031 0.237516 -0.000000
v 0.155074 0.270005 -0.000000
v 0.148311 0.304584 -0.000000
vn 0.000000 0.000000 1.000000
usemtl None
s off
f 38//1 36//1 37//1
f 38//1 35//1 36//1
f 39//1 35//1 38//1
f 39//1 34//1 35//1
f 40//1 34//1 39//1
f 40//1 33//1 34//1
f 41//1 33//1 40//1
f 41//1 32//1 33//1
f 42//1 32//1 41//1
f 42//1 31//1 32//1
f 43//1 61//1 42//1
f 61//1 31//1 42//1
f 43//1 60//1 61//1
f 62//1 31//1 61//1
f 63//1 31//1 62//1
f 43//1 59//1 60//1
f 64//1 31//1 63//1
f 43//1 58//1 59//1
f 64//1 30//1 31//1
f 44//1 58//1 43//1
f 65//1 30//1 64//1
f 44//1 57//1 58//1
f 66//1 30//1 65//1
f 44//1 56//1 57//1
f 66//1 29//1 30//1
f 45//1 56//1 44//1
f 67//1 29//1 66//1
f 45//1 55//1 56//1
f 68//1 29//1 67//1
f 45//1 54//1 55//1
f 68//1 28//1 29//1
f 46//1 54//1 45//1
f 69//1 28//1 68//1
f 46//1 53//1 54//1
f 69//1 27//1 28//1
f 47//1 53//1 46//1
f 70//1 27//1 69//1
f 47//1 52//1 53//1
f 71//1 27//1 70//1
f 47//1 51//1 52//1
f 71//1 26//1 27//1
f 48//1 51//1 47//1
f 72//1 26//1 71//1
f 48//1 50//1 51//1
f 72//1 25//1 26//1
f 1//1 50//1 48//1
f 73//1 25//1 72//1
f 1//1 49//1 50//1
f 2//1 49//1 1//1
f 2//1 96//1 49//1
f 74//1 25//1 73//1
f 74//1 24//1 25//1
f 2//1 95//1 96//1
f 75//1 24//1 74//1
f 75//1 23//1 24//1
f 3//1 95//1 2//1
f 3//1 94//1 95//1
f 76//1 23//1 75//1
f 76//1 22//1 23//1
f 4//1 94//1 3//1
f 77//1 22//1 76//1
f 4//1 93//1 94//1
f 77//1 21//1 22//1
f 5//1 93//1 4//1
f 78//1 21//1 77//1
f 5//1 92//1 93//1
f 79//1 21//1 78//1
f 5//1 91//1 92//1
f 79//1 20//1 21//1
f 6//1 91//1 5//1
f 80//1 20//1 79//1
f 6//1 90//1 91//1
f 81//1 20//1 80//1
f 6//1 89//1 90//1
f 81//1 19//1 20//1
f 7//1 89//1 6//1
f 82//1 19//1 81//1
f 7//1 88//1 89//1
f 83//1 19//1 82//1
f 7//1 87//1 88//1
f 83//1 18//1 19//1
f 8//1 87//1 7//1
f 84//1 18//1 83//1
f 8//1 86//1 87//1
f 85//1 18//1 84//1
f 8//1 85//1 86//1
f 8//1 18//1 85//1
f 8//1 17//1 18//1
f 9//1 17//1 8//1
f 9//1 16//1 17//1
f 10//1 16//1 9//1
f 10//1 15//1 16//1
f 11//1 15//1 10//1
f 11//1 14//1 15//1
f 12//1 14//1 11//1
f 12//1 13//1 14//1
