# Blender v2.69 (sub 0) OBJ File: ''
# www.blender.org
mtllib U.mtl
o Text
v 0.648000 0.682000 -0.000000
v 0.550000 0.682000 -0.000000
v 0.550000 0.285000 -0.000000
v 0.549822 0.269292 -0.000000
v 0.549245 0.254171 -0.000000
v 0.548203 0.239641 -0.000000
v 0.546630 0.225704 -0.000000
v 0.544459 0.212364 -0.000000
v 0.541625 0.199625 -0.000000
v 0.538062 0.187490 -0.000000
v 0.533704 0.175963 -0.000000
v 0.528484 0.165047 -0.000000
v 0.522338 0.154745 -0.000000
v 0.515198 0.145062 -0.000000
v 0.507000 0.136000 -0.000000
v 0.498772 0.128406 -0.000000
v 0.489593 0.121162 -0.000000
v 0.479469 0.114328 -0.000000
v 0.468407 0.107963 -0.000000
v 0.456416 0.102126 -0.000000
v 0.443500 0.096875 -0.000000
v 0.429668 0.092270 -0.000000
v 0.414926 0.088370 -0.000000
v 0.399281 0.085234 -0.000000
v 0.382741 0.082921 -0.000000
v 0.365311 0.081490 -0.000000
v 0.347000 0.081000 -0.000000
v 0.332458 0.081396 -0.000000
v 0.318333 0.082588 -0.000000
v 0.304625 0.084578 -0.000000
v 0.291333 0.087370 -0.000000
v 0.278458 0.090968 -0.000000
v 0.266000 0.095375 -0.000000
v 0.253958 0.100594 -0.000000
v 0.242333 0.106630 -0.000000
v 0.231125 0.113484 -0.000000
v 0.220333 0.121162 -0.000000
v 0.209958 0.129666 -0.000000
v 0.200000 0.139000 -0.000000
v 0.192681 0.146796 -0.000000
v 0.186199 0.154787 -0.000000
v 0.180516 0.163125 -0.000000
v 0.175593 0.171963 -0.000000
v 0.171392 0.181454 -0.000000
v 0.167875 0.191750 -0.000000
v 0.165004 0.203005 -0.000000
v 0.162741 0.215370 -0.000000
v 0.161047 0.229000 -0.000000
v 0.159884 0.244046 -0.000000
v 0.159215 0.260662 -0.000000
v 0.159000 0.279000 -0.000000
v 0.159000 0.682000 -0.000000
v 0.061000 0.682000 -0.000000
v 0.061000 0.258000 -0.000000
v 0.063838 0.213674 -0.000000
v 0.072037 0.173639 -0.000000
v 0.085125 0.137812 -0.000000
v 0.102630 0.106111 -0.000000
v 0.124079 0.078451 -0.000000
v 0.149000 0.054750 -0.000000
v 0.176921 0.034924 -0.000000
v 0.207370 0.018889 -0.000000
v 0.239875 0.006562 -0.000000
v 0.273963 -0.002139 0.000000
v 0.309162 -0.007299 0.000000
v 0.345000 -0.009000 0.000000
v 0.393606 -0.006739 0.000000
v 0.437931 -0.000079 0.000000
v 0.477984 0.010797 -0.000000
v 0.513778 0.025704 -0.000000
v 0.545321 0.044458 -0.000000
v 0.572625 0.066875 -0.000000
v 0.595700 0.092771 -0.000000
v 0.614555 0.121963 -0.000000
v 0.629203 0.154266 -0.000000
v 0.639653 0.189495 -0.000000
v 0.645915 0.227468 -0.000000
v 0.648000 0.268000 -0.000000
vn 0.000000 0.000000 1.000000
usemtl None
s off
f 54//1 52//1 53//1
f 54//1 51//1 52//1
f 3//1 1//1 2//1
f 3//1 78//1 1//1
f 4//1 78//1 3//1
f 54//1 50//1 51//1
f 5//1 78//1 4//1
f 5//1 77//1 78//1
f 54//1 49//1 50//1
f 55//1 49//1 54//1
f 6//1 77//1 5//1
f 55//1 48//1 49//1
f 7//1 77//1 6//1
f 55//1 47//1 48//1
f 7//1 76//1 77//1
f 8//1 76//1 7//1
f 55//1 46//1 47//1
f 56//1 46//1 55//1
f 9//1 76//1 8//1
f 56//1 45//1 46//1
f 10//1 76//1 9//1
f 56//1 44//1 45//1
f 10//1 75//1 76//1
f 11//1 75//1 10//1
f 56//1 43//1 44//1
f 12//1 75//1 11//1
f 57//1 43//1 56//1
f 57//1 42//1 43//1
f 13//1 75//1 12//1
f 57//1 41//1 42//1
f 57//1 40//1 41//1
f 14//1 75//1 13//1
f 14//1 74//1 75//1
f 57//1 39//1 40//1
f 15//1 74//1 14//1
f 57//1 38//1 39//1
f 58//1 38//1 57//1
f 16//1 74//1 15//1
f 58//1 37//1 38//1
f 17//1 74//1 16//1
f 17//1 73//1 74//1
f 58//1 36//1 37//1
f 18//1 73//1 17//1
f 19//1 73//1 18//1
f 58//1 35//1 36//1
f 20//1 73//1 19//1
f 58//1 34//1 35//1
f 59//1 34//1 58//1
f 21//1 73//1 20//1
f 59//1 33//1 34//1
f 22//1 73//1 21//1
f 59//1 32//1 33//1
f 22//1 72//1 73//1
f 23//1 72//1 22//1
f 59//1 31//1 32//1
f 24//1 72//1 23//1
f 59//1 30//1 31//1
f 25//1 72//1 24//1
f 59//1 29//1 30//1
f 26//1 72//1 25//1
f 59//1 28//1 29//1
f 27//1 72//1 26//1
f 59//1 27//1 28//1
f 59//1 72//1 27//1
f 60//1 72//1 59//1
f 60//1 71//1 72//1
f 61//1 71//1 60//1
f 61//1 70//1 71//1
f 62//1 70//1 61//1
f 62//1 69//1 70//1
f 63//1 69//1 62//1
f 63//1 68//1 69//1
f 64//1 68//1 63//1
f 64//1 67//1 68//1
f 65//1 67//1 64//1
f 65//1 66//1 67//1
