# Blender v2.69 (sub 0) OBJ File: ''
# www.blender.org
mtllib Y.mtl
o Text
v 0.301000 0.447000 -0.000000
v 0.118000 0.682000 -0.000000
v 0.000000 0.682000 -0.000000
v 0.253000 0.361000 -0.000000
v 0.253000 0.000000 0.000000
v 0.351000 0.000000 0.000000
v 0.351000 0.360000 -0.000000
v 0.604000 0.682000 -0.000000
v 0.486000 0.682000 -0.000000
vn 0.000000 0.000000 1.000000
usemtl None
s off
f 4//1 2//1 3//1
f 4//1 1//1 2//1
f 1//1 8//1 9//1
f 1//1 7//1 8//1
f 4//1 7//1 1//1
f 5//1 7//1 4//1
f 5//1 6//1 7//1
