# Blender v2.69 (sub 0) OBJ File: ''
# www.blender.org
mtllib d.mtl
o Text
v 0.451000 0.682000 -0.000000
v 0.362000 0.682000 -0.000000
v 0.362000 0.440000 -0.000000
v 0.353161 0.443085 -0.000000
v 0.344620 0.445847 -0.000000
v 0.336344 0.448297 -0.000000
v 0.328296 0.450444 -0.000000
v 0.320443 0.452300 -0.000000
v 0.312750 0.453875 -0.000000
v 0.305182 0.455179 -0.000000
v 0.297704 0.456222 -0.000000
v 0.290281 0.457016 -0.000000
v 0.282880 0.457569 -0.000000
v 0.275464 0.457894 -0.000000
v 0.268000 0.458000 -0.000000
v 0.236073 0.456095 -0.000000
v 0.205921 0.450509 -0.000000
v 0.177734 0.441438 -0.000000
v 0.151704 0.429074 -0.000000
v 0.128020 0.413613 -0.000000
v 0.106875 0.395250 -0.000000
v 0.088459 0.374178 -0.000000
v 0.072963 0.350593 -0.000000
v 0.060578 0.324688 -0.000000
v 0.051495 0.296657 -0.000000
v 0.045906 0.266697 -0.000000
v 0.044000 0.235000 -0.000000
v 0.045730 0.200126 -0.000000
v 0.050843 0.167593 -0.000000
v 0.059219 0.137531 -0.000000
v 0.070741 0.110074 -0.000000
v 0.085291 0.085353 -0.000000
v 0.102750 0.063500 -0.000000
v 0.123001 0.044647 -0.000000
v 0.145926 0.028926 -0.000000
v 0.171406 0.016469 -0.000000
v 0.199324 0.007407 -0.000000
v 0.229561 0.001874 -0.000000
v 0.262000 0.000000 0.000000
v 0.451000 0.000000 0.000000
v 0.362000 0.075000 -0.000000
v 0.272000 0.075000 -0.000000
v 0.247667 0.076288 -0.000000
v 0.226088 0.080056 -0.000000
v 0.207141 0.086156 -0.000000
v 0.190704 0.094444 -0.000000
v 0.176656 0.104774 -0.000000
v 0.164875 0.117000 -0.000000
v 0.155240 0.130976 -0.000000
v 0.147630 0.146556 -0.000000
v 0.141922 0.163594 -0.000000
v 0.137995 0.181944 -0.000000
v 0.135729 0.201462 -0.000000
v 0.135000 0.222000 -0.000000
v 0.136191 0.244816 -0.000000
v 0.139694 0.266194 -0.000000
v 0.145406 0.286031 -0.000000
v 0.153222 0.304222 -0.000000
v 0.163038 0.320663 -0.000000
v 0.174750 0.335250 -0.000000
v 0.188253 0.347878 -0.000000
v 0.203444 0.358444 -0.000000
v 0.220219 0.366844 -0.000000
v 0.238472 0.372972 -0.000000
v 0.258101 0.376726 -0.000000
v 0.279000 0.378000 -0.000000
v 0.286362 0.377895 -0.000000
v 0.293481 0.377574 -0.000000
v 0.300406 0.377031 -0.000000
v 0.307185 0.376259 -0.000000
v 0.313867 0.375251 -0.000000
v 0.320500 0.374000 -0.000000
v 0.327133 0.372499 -0.000000
v 0.333815 0.370741 -0.000000
v 0.340594 0.368719 -0.000000
v 0.347519 0.366426 -0.000000
v 0.354638 0.363855 -0.000000
v 0.362000 0.361000 -0.000000
vn 0.000000 0.000000 1.000000
usemtl None
s off
f 3//1 1//1 2//1
f 3//1 40//1 1//1
f 16//1 14//1 15//1
f 16//1 13//1 14//1
f 16//1 12//1 13//1
f 16//1 11//1 12//1
f 16//1 10//1 11//1
f 17//1 10//1 16//1
f 17//1 9//1 10//1
f 17//1 8//1 9//1
f 17//1 7//1 8//1
f 18//1 7//1 17//1
f 18//1 6//1 7//1
f 18//1 5//1 6//1
f 18//1 4//1 5//1
f 18//1 3//1 4//1
f 19//1 3//1 18//1
f 19//1 75//1 3//1
f 75//1 76//1 3//1
f 76//1 77//1 3//1
f 77//1 78//1 3//1
f 78//1 40//1 3//1
f 20//1 72//1 19//1
f 72//1 73//1 19//1
f 73//1 74//1 19//1
f 74//1 75//1 19//1
f 21//1 69//1 20//1
f 69//1 70//1 20//1
f 70//1 71//1 20//1
f 71//1 72//1 20//1
f 22//1 66//1 21//1
f 66//1 67//1 21//1
f 67//1 68//1 21//1
f 68//1 69//1 21//1
f 22//1 65//1 66//1
f 22//1 64//1 65//1
f 23//1 64//1 22//1
f 23//1 63//1 64//1
f 23//1 62//1 63//1
f 41//1 40//1 78//1
f 23//1 61//1 62//1
f 24//1 61//1 23//1
f 24//1 60//1 61//1
f 24//1 59//1 60//1
f 25//1 59//1 24//1
f 25//1 58//1 59//1
f 25//1 57//1 58//1
f 26//1 57//1 25//1
f 26//1 56//1 57//1
f 27//1 56//1 26//1
f 27//1 55//1 56//1
f 27//1 54//1 55//1
f 28//1 54//1 27//1
f 28//1 53//1 54//1
f 28//1 52//1 53//1
f 29//1 52//1 28//1
f 29//1 51//1 52//1
f 30//1 51//1 29//1
f 30//1 50//1 51//1
f 30//1 49//1 50//1
f 31//1 49//1 30//1
f 31//1 48//1 49//1
f 31//1 47//1 48//1
f 32//1 47//1 31//1
f 32//1 46//1 47//1
f 32//1 45//1 46//1
f 32//1 44//1 45//1
f 33//1 44//1 32//1
f 33//1 43//1 44//1
f 33//1 42//1 43//1
f 33//1 41//1 42//1
f 33//1 40//1 41//1
f 34//1 40//1 33//1
f 35//1 40//1 34//1
f 36//1 40//1 35//1
f 37//1 40//1 36//1
f 38//1 40//1 37//1
f 39//1 40//1 38//1
