# Blender v2.69 (sub 0) OBJ File: ''
# www.blender.org
mtllib f.mtl
o Text
v 0.296000 0.682000 -0.000000
v 0.277054 0.686678 -0.000000
v 0.259185 0.689759 -0.000000
v 0.242344 0.691313 -0.000000
v 0.226481 0.691407 -0.000000
v 0.211550 0.690113 -0.000000
v 0.197500 0.687500 -0.000000
v 0.184284 0.683637 -0.000000
v 0.171852 0.678593 -0.000000
v 0.160156 0.672438 -0.000000
v 0.149148 0.665241 -0.000000
v 0.138779 0.657072 -0.000000
v 0.129000 0.648000 -0.000000
v 0.120316 0.638852 -0.000000
v 0.112278 0.629315 -0.000000
v 0.104906 0.619250 -0.000000
v 0.098222 0.608519 -0.000000
v 0.092247 0.596982 -0.000000
v 0.087000 0.584500 -0.000000
v 0.082503 0.570935 -0.000000
v 0.078778 0.556148 -0.000000
v 0.075844 0.540000 -0.000000
v 0.073722 0.522352 -0.000000
v 0.072434 0.503065 -0.000000
v 0.072000 0.482000 -0.000000
v 0.072000 0.449000 -0.000000
v 0.009000 0.449000 -0.000000
v 0.009000 0.369000 -0.000000
v 0.072000 0.369000 -0.000000
v 0.072000 0.000000 0.000000
v 0.161000 0.000000 0.000000
v 0.161000 0.369000 -0.000000
v 0.242000 0.369000 -0.000000
v 0.242000 0.449000 -0.000000
v 0.161000 0.449000 -0.000000
v 0.161000 0.492000 -0.000000
v 0.161494 0.508679 -0.000000
v 0.163037 0.524181 -0.000000
v 0.165719 0.538453 -0.000000
v 0.169630 0.551444 -0.000000
v 0.174860 0.563102 -0.000000
v 0.181500 0.573375 -0.000000
v 0.189640 0.582210 -0.000000
v 0.199370 0.589556 -0.000000
v 0.210781 0.595359 -0.000000
v 0.223963 0.599569 -0.000000
v 0.239006 0.602134 -0.000000
v 0.256000 0.603000 -0.000000
v 0.259862 0.602957 -0.000000
v 0.263477 0.602824 -0.000000
v 0.266891 0.602594 -0.000000
v 0.270148 0.602259 -0.000000
v 0.273295 0.601814 -0.000000
v 0.276375 0.601250 -0.000000
v 0.279435 0.600561 -0.000000
v 0.282519 0.599741 -0.000000
v 0.285672 0.598781 -0.000000
v 0.288940 0.597676 -0.000000
v 0.292367 0.596418 -0.000000
v 0.296000 0.595000 -0.000000
vn 0.000000 0.000000 1.000000
usemtl None
s off
f 6//1 4//1 5//1
f 6//1 3//1 4//1
f 7//1 3//1 6//1
f 7//1 2//1 3//1
f 8//1 2//1 7//1
f 8//1 1//1 2//1
f 9//1 1//1 8//1
f 9//1 60//1 1//1
f 10//1 60//1 9//1
f 11//1 60//1 10//1
f 12//1 60//1 11//1
f 13//1 57//1 12//1
f 57//1 58//1 12//1
f 58//1 59//1 12//1
f 59//1 60//1 12//1
f 14//1 55//1 13//1
f 55//1 56//1 13//1
f 56//1 57//1 13//1
f 15//1 53//1 14//1
f 53//1 54//1 14//1
f 54//1 55//1 14//1
f 16//1 52//1 15//1
f 52//1 53//1 15//1
f 17//1 49//1 16//1
f 49//1 50//1 16//1
f 50//1 51//1 16//1
f 51//1 52//1 16//1
f 18//1 48//1 17//1
f 48//1 49//1 17//1
f 18//1 47//1 48//1
f 18//1 46//1 47//1
f 18//1 45//1 46//1
f 19//1 45//1 18//1
f 19//1 44//1 45//1
f 19//1 43//1 44//1
f 20//1 43//1 19//1
f 20//1 42//1 43//1
f 20//1 41//1 42//1
f 21//1 41//1 20//1
f 21//1 40//1 41//1
f 22//1 40//1 21//1
f 22//1 39//1 40//1
f 23//1 39//1 22//1
f 23//1 38//1 39//1
f 23//1 37//1 38//1
f 24//1 37//1 23//1
f 24//1 36//1 37//1
f 25//1 36//1 24//1
f 25//1 35//1 36//1
f 26//1 35//1 25//1
f 28//1 26//1 27//1
f 28//1 35//1 26//1
f 28//1 34//1 35//1
f 28//1 33//1 34//1
f 29//1 33//1 28//1
f 30//1 32//1 29//1
f 32//1 33//1 29//1
f 30//1 31//1 32//1
