# Blender v2.69 (sub 0) OBJ File: ''
# www.blender.org
mtllib n.mtl
o Text
v 0.150000 0.449000 -0.000000
v 0.061000 0.449000 -0.000000
v 0.061000 0.000000 0.000000
v 0.150000 0.000000 0.000000
v 0.150000 0.322000 -0.000000
v 0.160282 0.333152 -0.000000
v 0.170171 0.343134 -0.000000
v 0.179734 0.351984 -0.000000
v 0.189037 0.359741 -0.000000
v 0.198145 0.366442 -0.000000
v 0.207125 0.372125 -0.000000
v 0.216042 0.376829 -0.000000
v 0.224963 0.380593 -0.000000
v 0.233953 0.383453 -0.000000
v 0.243079 0.385449 -0.000000
v 0.252406 0.386619 -0.000000
v 0.262000 0.387000 -0.000000
v 0.275075 0.386116 -0.000000
v 0.287269 0.383509 -0.000000
v 0.298531 0.379250 -0.000000
v 0.308815 0.373407 -0.000000
v 0.318071 0.366051 -0.000000
v 0.326250 0.357250 -0.000000
v 0.333304 0.347074 -0.000000
v 0.339185 0.335593 -0.000000
v 0.343844 0.322875 -0.000000
v 0.347232 0.308991 -0.000000
v 0.349300 0.294009 -0.000000
v 0.350000 0.278000 -0.000000
v 0.350000 0.000000 0.000000
v 0.439000 0.000000 0.000000
v 0.439000 0.277000 -0.000000
v 0.437613 0.306400 -0.000000
v 0.433569 0.333116 -0.000000
v 0.427047 0.357172 -0.000000
v 0.418222 0.378593 -0.000000
v 0.407273 0.397402 -0.000000
v 0.394375 0.413625 -0.000000
v 0.379707 0.427285 -0.000000
v 0.363444 0.438407 -0.000000
v 0.345766 0.447016 -0.000000
v 0.326847 0.453134 -0.000000
v 0.306866 0.456788 -0.000000
v 0.286000 0.458000 -0.000000
v 0.273509 0.457483 -0.000000
v 0.261074 0.455949 -0.000000
v 0.248750 0.453422 -0.000000
v 0.236593 0.449926 -0.000000
v 0.224657 0.445486 -0.000000
v 0.213000 0.440125 -0.000000
v 0.201676 0.433869 -0.000000
v 0.190741 0.426741 -0.000000
v 0.180250 0.418766 -0.000000
v 0.170259 0.409968 -0.000000
v 0.160824 0.400371 -0.000000
v 0.152000 0.390000 -0.000000
v 0.150000 0.390000 -0.000000
vn 0.000000 0.000000 1.000000
usemtl None
s off
f 45//1 43//1 44//1
f 46//1 43//1 45//1
f 46//1 42//1 43//1
f 47//1 42//1 46//1
f 48//1 42//1 47//1
f 48//1 41//1 42//1
f 49//1 41//1 48//1
f 3//1 1//1 2//1
f 3//1 57//1 1//1
f 49//1 40//1 41//1
f 50//1 40//1 49//1
f 51//1 40//1 50//1
f 51//1 39//1 40//1
f 52//1 39//1 51//1
f 52//1 38//1 39//1
f 53//1 38//1 52//1
f 54//1 38//1 53//1
f 54//1 37//1 38//1
f 55//1 37//1 54//1
f 56//1 37//1 55//1
f 56//1 17//1 37//1
f 17//1 36//1 37//1
f 3//1 56//1 57//1
f 3//1 5//1 56//1
f 5//1 6//1 56//1
f 6//1 7//1 56//1
f 7//1 8//1 56//1
f 8//1 9//1 56//1
f 9//1 10//1 56//1
f 10//1 11//1 56//1
f 11//1 12//1 56//1
f 12//1 13//1 56//1
f 13//1 14//1 56//1
f 14//1 15//1 56//1
f 15//1 16//1 56//1
f 16//1 17//1 56//1
f 18//1 36//1 17//1
f 19//1 36//1 18//1
f 20//1 36//1 19//1
f 21//1 36//1 20//1
f 21//1 35//1 36//1
f 22//1 35//1 21//1
f 23//1 35//1 22//1
f 24//1 35//1 23//1
f 24//1 34//1 35//1
f 25//1 34//1 24//1
f 26//1 34//1 25//1
f 26//1 33//1 34//1
f 27//1 33//1 26//1
f 3//1 4//1 5//1
f 28//1 33//1 27//1
f 28//1 32//1 33//1
f 29//1 32//1 28//1
f 30//1 32//1 29//1
f 30//1 31//1 32//1
