# Blender v2.69 (sub 0) OBJ File: ''
# www.blender.org
mtllib o.mtl
o Text
v 0.273000 0.458000 -0.000000
v 0.240187 0.455958 -0.000000
v 0.208917 0.449995 -0.000000
v 0.179438 0.440359 -0.000000
v 0.152000 0.427296 -0.000000
v 0.126854 0.411053 -0.000000
v 0.104250 0.391875 -0.000000
v 0.084438 0.370010 -0.000000
v 0.067667 0.345704 -0.000000
v 0.054188 0.319203 -0.000000
v 0.044250 0.290755 -0.000000
v 0.038104 0.260605 -0.000000
v 0.036000 0.229000 -0.000000
v 0.038028 0.195328 -0.000000
v 0.043972 0.163454 -0.000000
v 0.053625 0.133594 -0.000000
v 0.066778 0.105963 -0.000000
v 0.083222 0.080777 -0.000000
v 0.102750 0.058250 -0.000000
v 0.125153 0.038598 -0.000000
v 0.150222 0.022037 -0.000000
v 0.177750 0.008781 -0.000000
v 0.207528 -0.000954 0.000000
v 0.239347 -0.006953 0.000000
v 0.273000 -0.009000 0.000000
v 0.308031 -0.007029 0.000000
v 0.341000 -0.001231 0.000000
v 0.371719 0.008219 -0.000000
v 0.400000 0.021148 -0.000000
v 0.425656 0.037383 -0.000000
v 0.448500 0.056750 -0.000000
v 0.468344 0.079075 -0.000000
v 0.485000 0.104185 -0.000000
v 0.498281 0.131906 -0.000000
v 0.508000 0.162065 -0.000000
v 0.513969 0.194487 -0.000000
v 0.516000 0.229000 -0.000000
v 0.513911 0.261445 -0.000000
v 0.507792 0.292144 -0.000000
v 0.497859 0.320891 -0.000000
v 0.484333 0.347482 -0.000000
v 0.467432 0.371711 -0.000000
v 0.447375 0.393375 -0.000000
v 0.424380 0.412268 -0.000000
v 0.398667 0.428185 -0.000000
v 0.370453 0.440922 -0.000000
v 0.339958 0.450273 -0.000000
v 0.307401 0.456034 -0.000000
v 0.272000 0.378000 -0.000000
v 0.293707 0.376710 -0.000000
v 0.314236 0.372931 -0.000000
v 0.333453 0.366797 -0.000000
v 0.351222 0.358444 -0.000000
v 0.367408 0.348009 -0.000000
v 0.381875 0.335625 -0.000000
v 0.394488 0.321429 -0.000000
v 0.405111 0.305556 -0.000000
v 0.413609 0.288141 -0.000000
v 0.419847 0.269320 -0.000000
v 0.423689 0.249227 -0.000000
v 0.425000 0.228000 -0.000000
v 0.423785 0.204534 -0.000000
v 0.420194 0.182690 -0.000000
v 0.414313 0.162547 -0.000000
v 0.406222 0.144185 -0.000000
v 0.396007 0.127685 -0.000000
v 0.383750 0.113125 -0.000000
v 0.369535 0.100586 -0.000000
v 0.353444 0.090148 -0.000000
v 0.335562 0.081891 -0.000000
v 0.315972 0.075894 -0.000000
v 0.294757 0.072237 -0.000000
v 0.272000 0.071000 -0.000000
v 0.251081 0.072295 -0.000000
v 0.231398 0.076106 -0.000000
v 0.213062 0.082328 -0.000000
v 0.196185 0.090852 -0.000000
v 0.180877 0.101570 -0.000000
v 0.167250 0.114375 -0.000000
v 0.155414 0.129159 -0.000000
v 0.145481 0.145815 -0.000000
v 0.137562 0.164234 -0.000000
v 0.131769 0.184310 -0.000000
v 0.128211 0.205935 -0.000000
v 0.127000 0.229000 -0.000000
v 0.128249 0.249998 -0.000000
v 0.131907 0.269898 -0.000000
v 0.137844 0.288563 -0.000000
v 0.145926 0.305852 -0.000000
v 0.156022 0.321627 -0.000000
v 0.168000 0.335750 -0.000000
v 0.181728 0.348081 -0.000000
v 0.197074 0.358482 -0.000000
v 0.213906 0.366813 -0.000000
v 0.232093 0.372935 -0.000000
v 0.251501 0.376711 -0.000000
vn -0.000000 0.000000 1.000000
usemtl None
s off
f 2//1 48//1 1//1
f 2//1 47//1 48//1
f 3//1 47//1 2//1
f 3//1 46//1 47//1
f 4//1 46//1 3//1
f 4//1 45//1 46//1
f 5//1 45//1 4//1
f 5//1 44//1 45//1
f 6//1 44//1 5//1
f 6//1 43//1 44//1
f 7//1 43//1 6//1
f 7//1 42//1 43//1
f 8//1 49//1 7//1
f 49//1 42//1 7//1
f 8//1 96//1 49//1
f 50//1 42//1 49//1
f 8//1 95//1 96//1
f 51//1 42//1 50//1
f 8//1 94//1 95//1
f 52//1 42//1 51//1
f 52//1 41//1 42//1
f 9//1 94//1 8//1
f 9//1 93//1 94//1
f 53//1 41//1 52//1
f 9//1 92//1 93//1
f 54//1 41//1 53//1
f 9//1 91//1 92//1
f 55//1 41//1 54//1
f 55//1 40//1 41//1
f 10//1 91//1 9//1
f 10//1 90//1 91//1
f 56//1 40//1 55//1
f 10//1 89//1 90//1
f 57//1 40//1 56//1
f 57//1 39//1 40//1
f 11//1 89//1 10//1
f 11//1 88//1 89//1
f 58//1 39//1 57//1
f 58//1 38//1 39//1
f 12//1 88//1 11//1
f 12//1 87//1 88//1
f 59//1 38//1 58//1
f 12//1 86//1 87//1
f 60//1 38//1 59//1
f 60//1 37//1 38//1
f 13//1 86//1 12//1
f 13//1 85//1 86//1
f 61//1 37//1 60//1
f 14//1 85//1 13//1
f 14//1 84//1 85//1
f 61//1 36//1 37//1
f 62//1 36//1 61//1
f 14//1 83//1 84//1
f 63//1 36//1 62//1
f 15//1 83//1 14//1
f 63//1 35//1 36//1
f 15//1 82//1 83//1
f 64//1 35//1 63//1
f 15//1 81//1 82//1
f 16//1 81//1 15//1
f 65//1 35//1 64//1
f 65//1 34//1 35//1
f 16//1 80//1 81//1
f 66//1 34//1 65//1
f 17//1 80//1 16//1
f 66//1 33//1 34//1
f 17//1 79//1 80//1
f 67//1 33//1 66//1
f 17//1 78//1 79//1
f 68//1 33//1 67//1
f 18//1 78//1 17//1
f 68//1 32//1 33//1
f 18//1 77//1 78//1
f 69//1 32//1 68//1
f 18//1 76//1 77//1
f 70//1 32//1 69//1
f 18//1 75//1 76//1
f 71//1 32//1 70//1
f 19//1 75//1 18//1
f 71//1 31//1 32//1
f 19//1 74//1 75//1
f 72//1 31//1 71//1
f 19//1 73//1 74//1
f 73//1 31//1 72//1
f 19//1 31//1 73//1
f 20//1 31//1 19//1
f 20//1 30//1 31//1
f 21//1 30//1 20//1
f 21//1 29//1 30//1
f 22//1 29//1 21//1
f 22//1 28//1 29//1
f 23//1 28//1 22//1
f 23//1 27//1 28//1
f 24//1 27//1 23//1
f 24//1 26//1 27//1
f 25//1 26//1 24//1
