# Blender v2.69 (sub 0) OBJ File: ''
# www.blender.org
mtllib w.mtl
o Text
v 0.393000 0.449000 -0.000000
v 0.327000 0.449000 -0.000000
v 0.213000 0.177000 -0.000000
v 0.095000 0.449000 -0.000000
v 0.000000 0.449000 -0.000000
v 0.200000 -0.009000 0.000000
v 0.228000 -0.009000 0.000000
v 0.360000 0.305000 -0.000000
v 0.493000 -0.009000 0.000000
v 0.521000 -0.009000 0.000000
v 0.719000 0.449000 -0.000000
v 0.624000 0.449000 -0.000000
v 0.507000 0.177000 -0.000000
vn 0.000000 0.000000 1.000000
usemtl None
s off
f 6//1 4//1 5//1
f 6//1 3//1 4//1
f 3//1 1//1 2//1
f 3//1 8//1 1//1
f 8//1 13//1 1//1
f 13//1 11//1 12//1
f 13//1 10//1 11//1
f 3//1 7//1 8//1
f 9//1 13//1 8//1
f 6//1 7//1 3//1
f 9//1 10//1 13//1
