# Blender v2.69 (sub 0) OBJ File: ''
# www.blender.org
mtllib 5.mtl
o Text
v 0.404000 0.682000 -0.000000
v 0.101000 0.682000 -0.000000
v 0.101000 0.327000 -0.000000
v 0.137213 0.333863 -0.000000
v 0.170787 0.336653 -0.000000
v 0.201625 0.335672 -0.000000
v 0.229630 0.331222 -0.000000
v 0.254704 0.323606 -0.000000
v 0.276750 0.313125 -0.000000
v 0.295671 0.300082 -0.000000
v 0.311370 0.284778 -0.000000
v 0.323750 0.267516 -0.000000
v 0.332713 0.248597 -0.000000
v 0.338162 0.228325 -0.000000
v 0.340000 0.207000 -0.000000
v 0.338696 0.190505 -0.000000
v 0.334903 0.174625 -0.000000
v 0.328797 0.159516 -0.000000
v 0.320556 0.145333 -0.000000
v 0.310356 0.132234 -0.000000
v 0.298375 0.120375 -0.000000
v 0.284790 0.109911 -0.000000
v 0.269778 0.101000 -0.000000
v 0.253516 0.093797 -0.000000
v 0.236181 0.088458 -0.000000
v 0.217950 0.085141 -0.000000
v 0.199000 0.084000 -0.000000
v 0.186501 0.084354 -0.000000
v 0.174005 0.085412 -0.000000
v 0.161516 0.087172 -0.000000
v 0.149037 0.089630 -0.000000
v 0.136572 0.092782 -0.000000
v 0.124125 0.096625 -0.000000
v 0.111698 0.101156 -0.000000
v 0.099296 0.106370 -0.000000
v 0.086922 0.112266 -0.000000
v 0.074579 0.118838 -0.000000
v 0.062270 0.126084 -0.000000
v 0.050000 0.134000 -0.000000
v 0.050000 0.033000 -0.000000
v 0.064514 0.025872 -0.000000
v 0.078611 0.019472 -0.000000
v 0.092375 0.013781 -0.000000
v 0.105889 0.008778 -0.000000
v 0.119236 0.004441 -0.000000
v 0.132500 0.000750 -0.000000
v 0.145764 -0.002316 0.000000
v 0.159111 -0.004778 0.000000
v 0.172625 -0.006656 0.000000
v 0.186389 -0.007972 0.000000
v 0.200486 -0.008747 0.000000
v 0.215000 -0.009000 0.000000
v 0.246487 -0.007117 0.000000
v 0.276310 -0.001602 0.000000
v 0.304266 0.007344 -0.000000
v 0.330148 0.019519 -0.000000
v 0.353753 0.034721 -0.000000
v 0.374875 0.052750 -0.000000
v 0.393310 0.073404 -0.000000
v 0.408852 0.096481 -0.000000
v 0.421297 0.121781 -0.000000
v 0.430440 0.149102 -0.000000
v 0.436076 0.178242 -0.000000
v 0.438000 0.209000 -0.000000
v 0.436061 0.239851 -0.000000
v 0.430324 0.269227 -0.000000
v 0.420906 0.296859 -0.000000
v 0.407926 0.322481 -0.000000
v 0.391501 0.345826 -0.000000
v 0.371750 0.366625 -0.000000
v 0.348790 0.384612 -0.000000
v 0.322741 0.399519 -0.000000
v 0.293719 0.411078 -0.000000
v 0.261843 0.419023 -0.000000
v 0.227230 0.423086 -0.000000
v 0.190000 0.423000 -0.000000
v 0.190000 0.594000 -0.000000
v 0.404000 0.594000 -0.000000
vn -0.000000 0.000000 1.000000
usemtl None
s off
f 3//1 77//1 2//1
f 77//1 1//1 2//1
f 77//1 78//1 1//1
f 3//1 76//1 77//1
f 76//1 74//1 75//1
f 3//1 74//1 76//1
f 3//1 73//1 74//1
f 3//1 72//1 73//1
f 3//1 71//1 72//1
f 3//1 4//1 71//1
f 4//1 70//1 71//1
f 4//1 5//1 70//1
f 5//1 69//1 70//1
f 5//1 6//1 69//1
f 6//1 68//1 69//1
f 7//1 68//1 6//1
f 8//1 68//1 7//1
f 9//1 68//1 8//1
f 9//1 67//1 68//1
f 10//1 67//1 9//1
f 11//1 67//1 10//1
f 11//1 66//1 67//1
f 12//1 66//1 11//1
f 12//1 65//1 66//1
f 13//1 65//1 12//1
f 14//1 65//1 13//1
f 14//1 64//1 65//1
f 15//1 64//1 14//1
f 15//1 63//1 64//1
f 16//1 63//1 15//1
f 17//1 63//1 16//1
f 17//1 62//1 63//1
f 18//1 62//1 17//1
f 19//1 62//1 18//1
f 19//1 61//1 62//1
f 20//1 61//1 19//1
f 40//1 38//1 39//1
f 21//1 61//1 20//1
f 40//1 37//1 38//1
f 21//1 60//1 61//1
f 22//1 60//1 21//1
f 40//1 36//1 37//1
f 40//1 35//1 36//1
f 23//1 60//1 22//1
f 40//1 34//1 35//1
f 40//1 33//1 34//1
f 24//1 60//1 23//1
f 40//1 32//1 33//1
f 24//1 59//1 60//1
f 25//1 59//1 24//1
f 40//1 31//1 32//1
f 40//1 30//1 31//1
f 26//1 59//1 25//1
f 40//1 29//1 30//1
f 40//1 28//1 29//1
f 27//1 59//1 26//1
f 40//1 27//1 28//1
f 40//1 59//1 27//1
f 40//1 58//1 59//1
f 40//1 57//1 58//1
f 40//1 56//1 57//1
f 41//1 56//1 40//1
f 42//1 56//1 41//1
f 42//1 55//1 56//1
f 43//1 55//1 42//1
f 44//1 55//1 43//1
f 45//1 55//1 44//1
f 45//1 54//1 55//1
f 46//1 54//1 45//1
f 47//1 54//1 46//1
f 47//1 53//1 54//1
f 48//1 53//1 47//1
f 49//1 53//1 48//1
f 50//1 53//1 49//1
f 50//1 52//1 53//1
f 51//1 52//1 50//1
