# Blender v2.69 (sub 0) OBJ File: ''
# www.blender.org
mtllib 6.mtl
o Text
v 0.317000 0.691000 -0.000000
v 0.274446 0.660466 -0.000000
v 0.235319 0.627977 -0.000000
v 0.199672 0.593703 -0.000000
v 0.167556 0.557815 -0.000000
v 0.139023 0.520482 -0.000000
v 0.114125 0.481875 -0.000000
v 0.092915 0.442164 -0.000000
v 0.075444 0.401519 -0.000000
v 0.061766 0.360109 -0.000000
v 0.051931 0.318107 -0.000000
v 0.045991 0.275680 -0.000000
v 0.044000 0.233000 -0.000000
v 0.045827 0.197988 -0.000000
v 0.051199 0.165074 -0.000000
v 0.059953 0.134438 -0.000000
v 0.071926 0.106259 -0.000000
v 0.086954 0.080720 -0.000000
v 0.104875 0.058000 -0.000000
v 0.125525 0.038280 -0.000000
v 0.148741 0.021741 -0.000000
v 0.174359 0.008563 -0.000000
v 0.202218 -0.001074 0.000000
v 0.232152 -0.006988 0.000000
v 0.264000 -0.009000 0.000000
v 0.290852 -0.007106 0.000000
v 0.316736 -0.001597 0.000000
v 0.341391 0.007266 -0.000000
v 0.364556 0.019222 -0.000000
v 0.385970 0.034012 -0.000000
v 0.405375 0.051375 -0.000000
v 0.422509 0.071050 -0.000000
v 0.437111 0.092778 -0.000000
v 0.448922 0.116297 -0.000000
v 0.457681 0.141347 -0.000000
v 0.463127 0.167668 -0.000000
v 0.465000 0.195000 -0.000000
v 0.463324 0.222653 -0.000000
v 0.458421 0.248977 -0.000000
v 0.450484 0.273766 -0.000000
v 0.439704 0.296815 -0.000000
v 0.426270 0.317920 -0.000000
v 0.410375 0.336875 -0.000000
v 0.392209 0.353476 -0.000000
v 0.371963 0.367518 -0.000000
v 0.349828 0.378797 -0.000000
v 0.325995 0.387106 -0.000000
v 0.300656 0.392242 -0.000000
v 0.274000 0.394000 -0.000000
v 0.262957 0.393716 -0.000000
v 0.252324 0.392898 -0.000000
v 0.242094 0.391594 -0.000000
v 0.232259 0.389852 -0.000000
v 0.222814 0.387721 -0.000000
v 0.213750 0.385250 -0.000000
v 0.205061 0.382487 -0.000000
v 0.196741 0.379482 -0.000000
v 0.188781 0.376281 -0.000000
v 0.181176 0.372935 -0.000000
v 0.173918 0.369492 -0.000000
v 0.167000 0.366000 -0.000000
v 0.175161 0.389806 -0.000000
v 0.185537 0.413616 -0.000000
v 0.197969 0.437266 -0.000000
v 0.212296 0.460593 -0.000000
v 0.228360 0.483433 -0.000000
v 0.246000 0.505625 -0.000000
v 0.265057 0.527004 -0.000000
v 0.285370 0.547407 -0.000000
v 0.306781 0.566672 -0.000000
v 0.329130 0.584634 -0.000000
v 0.352256 0.601131 -0.000000
v 0.376000 0.616000 -0.000000
v 0.146000 0.265000 -0.000000
v 0.156356 0.271590 -0.000000
v 0.166014 0.277389 -0.000000
v 0.175109 0.282438 -0.000000
v 0.183778 0.286778 -0.000000
v 0.192155 0.290451 -0.000000
v 0.200375 0.293500 -0.000000
v 0.208575 0.295965 -0.000000
v 0.216889 0.297889 -0.000000
v 0.225453 0.299313 -0.000000
v 0.234403 0.300278 -0.000000
v 0.243873 0.300826 -0.000000
v 0.254000 0.301000 -0.000000
v 0.269878 0.300080 -0.000000
v 0.284940 0.297389 -0.000000
v 0.299078 0.293031 -0.000000
v 0.312185 0.287111 -0.000000
v 0.324153 0.279733 -0.000000
v 0.334875 0.271000 -0.000000
v 0.344242 0.261017 -0.000000
v 0.352148 0.249889 -0.000000
v 0.358484 0.237719 -0.000000
v 0.363144 0.224611 -0.000000
v 0.366018 0.210670 -0.000000
v 0.367000 0.196000 -0.000000
v 0.366097 0.179722 -0.000000
v 0.363440 0.164440 -0.000000
v 0.359109 0.150234 -0.000000
v 0.353185 0.137185 -0.000000
v 0.345747 0.125372 -0.000000
v 0.336875 0.114875 -0.000000
v 0.326649 0.105774 -0.000000
v 0.315148 0.098148 -0.000000
v 0.302453 0.092078 -0.000000
v 0.288644 0.087644 -0.000000
v 0.273799 0.084924 -0.000000
v 0.258000 0.084000 -0.000000
v 0.240385 0.085422 -0.000000
v 0.223245 0.089630 -0.000000
v 0.206891 0.096531 -0.000000
v 0.191630 0.106037 -0.000000
v 0.177771 0.118057 -0.000000
v 0.165625 0.132500 -0.000000
v 0.155499 0.149277 -0.000000
v 0.147704 0.168296 -0.000000
v 0.142547 0.189469 -0.000000
v 0.140338 0.212704 -0.000000
v 0.141386 0.237911 -0.000000
vn 0.000000 0.000000 1.000000
usemtl None
s off
f 2//1 73//1 1//1
f 3//1 73//1 2//1
f 4//1 73//1 3//1
f 4//1 72//1 73//1
f 4//1 71//1 72//1
f 5//1 71//1 4//1
f 5//1 70//1 71//1
f 5//1 69//1 70//1
f 6//1 69//1 5//1
f 6//1 68//1 69//1
f 6//1 67//1 68//1
f 7//1 67//1 6//1
f 7//1 66//1 67//1
f 7//1 65//1 66//1
f 8//1 65//1 7//1
f 8//1 64//1 65//1
f 9//1 64//1 8//1
f 9//1 63//1 64//1
f 9//1 62//1 63//1
f 10//1 62//1 9//1
f 50//1 48//1 49//1
f 51//1 48//1 50//1
f 52//1 48//1 51//1
f 52//1 47//1 48//1
f 53//1 47//1 52//1
f 54//1 47//1 53//1
f 10//1 61//1 62//1
f 55//1 47//1 54//1
f 55//1 46//1 47//1
f 56//1 46//1 55//1
f 57//1 46//1 56//1
f 58//1 46//1 57//1
f 58//1 45//1 46//1
f 59//1 45//1 58//1
f 60//1 45//1 59//1
f 61//1 45//1 60//1
f 61//1 44//1 45//1
f 10//1 44//1 61//1
f 11//1 44//1 10//1
f 11//1 43//1 44//1
f 11//1 42//1 43//1
f 12//1 83//1 11//1
f 83//1 84//1 11//1
f 84//1 42//1 11//1
f 84//1 85//1 42//1
f 85//1 86//1 42//1
f 86//1 41//1 42//1
f 87//1 41//1 86//1
f 88//1 41//1 87//1
f 12//1 82//1 83//1
f 12//1 81//1 82//1
f 89//1 41//1 88//1
f 89//1 40//1 41//1
f 12//1 80//1 81//1
f 12//1 79//1 80//1
f 90//1 40//1 89//1
f 12//1 78//1 79//1
f 91//1 40//1 90//1
f 12//1 77//1 78//1
f 12//1 76//1 77//1
f 92//1 40//1 91//1
f 12//1 75//1 76//1
f 13//1 75//1 12//1
f 92//1 39//1 40//1
f 13//1 74//1 75//1
f 93//1 39//1 92//1
f 13//1 121//1 74//1
f 94//1 39//1 93//1
f 95//1 39//1 94//1
f 95//1 38//1 39//1
f 13//1 120//1 121//1
f 96//1 38//1 95//1
f 14//1 120//1 13//1
f 97//1 38//1 96//1
f 97//1 37//1 38//1
f 14//1 119//1 120//1
f 98//1 37//1 97//1
f 15//1 119//1 14//1
f 99//1 37//1 98//1
f 99//1 36//1 37//1
f 15//1 118//1 119//1
f 100//1 36//1 99//1
f 15//1 117//1 118//1
f 100//1 35//1 36//1
f 16//1 117//1 15//1
f 101//1 35//1 100//1
f 102//1 35//1 101//1
f 16//1 116//1 117//1
f 102//1 34//1 35//1
f 103//1 34//1 102//1
f 17//1 116//1 16//1
f 17//1 115//1 116//1
f 104//1 34//1 103//1
f 17//1 114//1 115//1
f 104//1 33//1 34//1
f 105//1 33//1 104//1
f 18//1 114//1 17//1
f 18//1 113//1 114//1
f 106//1 33//1 105//1
f 107//1 33//1 106//1
f 18//1 112//1 113//1
f 107//1 32//1 33//1
f 108//1 32//1 107//1
f 18//1 111//1 112//1
f 109//1 32//1 108//1
f 18//1 110//1 111//1
f 110//1 32//1 109//1
f 18//1 32//1 110//1
f 19//1 32//1 18//1
f 19//1 31//1 32//1
f 20//1 31//1 19//1
f 20//1 30//1 31//1
f 21//1 30//1 20//1
f 21//1 29//1 30//1
f 22//1 29//1 21//1
f 22//1 28//1 29//1
f 23//1 28//1 22//1
f 23//1 27//1 28//1
f 24//1 27//1 23//1
f 24//1 26//1 27//1
f 25//1 26//1 24//1
