# Blender v2.69 (sub 0) OBJ File: ''
# www.blender.org
mtllib c.mtl
o Text
v 0.393000 0.427000 -0.000000
v 0.382402 0.431601 -0.000000
v 0.372051 0.435894 -0.000000
v 0.361859 0.439859 -0.000000
v 0.351741 0.443482 -0.000000
v 0.341608 0.446743 -0.000000
v 0.331375 0.449625 -0.000000
v 0.320954 0.452112 -0.000000
v 0.310259 0.454185 -0.000000
v 0.299203 0.455828 -0.000000
v 0.287699 0.457023 -0.000000
v 0.275660 0.457753 -0.000000
v 0.263000 0.458000 -0.000000
v 0.230063 0.456065 -0.000000
v 0.199333 0.450352 -0.000000
v 0.170938 0.441000 -0.000000
v 0.145000 0.428148 -0.000000
v 0.121646 0.411935 -0.000000
v 0.101000 0.392500 -0.000000
v 0.083188 0.369981 -0.000000
v 0.068333 0.344519 -0.000000
v 0.056562 0.316250 -0.000000
v 0.048000 0.285315 -0.000000
v 0.042771 0.251852 -0.000000
v 0.041000 0.216000 -0.000000
v 0.042927 0.183844 -0.000000
v 0.048583 0.153500 -0.000000
v 0.057781 0.125156 -0.000000
v 0.070333 0.099000 -0.000000
v 0.086052 0.075219 -0.000000
v 0.104750 0.054000 -0.000000
v 0.126240 0.035531 -0.000000
v 0.150333 0.020000 -0.000000
v 0.176844 0.007594 -0.000000
v 0.205583 -0.001500 0.000000
v 0.236365 -0.007094 0.000000
v 0.269000 -0.009000 0.000000
v 0.280937 -0.008756 0.000000
v 0.293162 -0.008046 0.000000
v 0.305547 -0.006906 0.000000
v 0.317963 -0.005370 0.000000
v 0.330282 -0.003473 0.000000
v 0.342375 -0.001250 0.000000
v 0.354114 0.001265 -0.000000
v 0.365370 0.004037 -0.000000
v 0.376016 0.007031 -0.000000
v 0.385921 0.010213 -0.000000
v 0.394959 0.013547 -0.000000
v 0.403000 0.017000 -0.000000
v 0.403000 0.105000 -0.000000
v 0.391931 0.100208 -0.000000
v 0.381199 0.095833 -0.000000
v 0.370766 0.091875 -0.000000
v 0.360593 0.088333 -0.000000
v 0.350642 0.085208 -0.000000
v 0.340875 0.082500 -0.000000
v 0.331254 0.080208 -0.000000
v 0.321741 0.078333 -0.000000
v 0.312297 0.076875 -0.000000
v 0.302884 0.075833 -0.000000
v 0.293465 0.075208 -0.000000
v 0.284000 0.075000 -0.000000
v 0.261683 0.076156 -0.000000
v 0.240796 0.079579 -0.000000
v 0.221437 0.085203 -0.000000
v 0.203704 0.092963 -0.000000
v 0.187692 0.102792 -0.000000
v 0.173500 0.114625 -0.000000
v 0.161225 0.128395 -0.000000
v 0.150963 0.144037 -0.000000
v 0.142812 0.161484 -0.000000
v 0.136870 0.180671 -0.000000
v 0.133234 0.201532 -0.000000
v 0.132000 0.224000 -0.000000
v 0.133149 0.246107 -0.000000
v 0.136523 0.266856 -0.000000
v 0.142016 0.286141 -0.000000
v 0.149519 0.303852 -0.000000
v 0.158924 0.319883 -0.000000
v 0.170125 0.334125 -0.000000
v 0.183013 0.346472 -0.000000
v 0.197482 0.356815 -0.000000
v 0.213422 0.365047 -0.000000
v 0.230727 0.371060 -0.000000
v 0.249289 0.374747 -0.000000
v 0.269000 0.376000 -0.000000
v 0.278659 0.375784 -0.000000
v 0.288185 0.375102 -0.000000
v 0.297656 0.373906 -0.000000
v 0.307148 0.372148 -0.000000
v 0.316737 0.369779 -0.000000
v 0.326500 0.366750 -0.000000
v 0.336513 0.363013 -0.000000
v 0.346852 0.358519 -0.000000
v 0.357594 0.353219 -0.000000
v 0.368815 0.347065 -0.000000
v 0.380591 0.340008 -0.000000
v 0.393000 0.332000 -0.000000
vn 0.000000 0.000000 1.000000
usemtl None
s off
f 14//1 12//1 13//1
f 14//1 11//1 12//1
f 14//1 10//1 11//1
f 15//1 10//1 14//1
f 15//1 9//1 10//1
f 15//1 8//1 9//1
f 15//1 7//1 8//1
f 16//1 7//1 15//1
f 16//1 6//1 7//1
f 16//1 5//1 6//1
f 16//1 4//1 5//1
f 17//1 4//1 16//1
f 17//1 3//1 4//1
f 17//1 2//1 3//1
f 17//1 1//1 2//1
f 18//1 1//1 17//1
f 18//1 90//1 1//1
f 90//1 91//1 1//1
f 91//1 92//1 1//1
f 92//1 93//1 1//1
f 93//1 94//1 1//1
f 94//1 95//1 1//1
f 95//1 96//1 1//1
f 96//1 97//1 1//1
f 97//1 98//1 1//1
f 19//1 88//1 18//1
f 88//1 89//1 18//1
f 89//1 90//1 18//1
f 20//1 86//1 19//1
f 86//1 87//1 19//1
f 87//1 88//1 19//1
f 20//1 85//1 86//1
f 20//1 84//1 85//1
f 20//1 83//1 84//1
f 21//1 83//1 20//1
f 21//1 82//1 83//1
f 21//1 81//1 82//1
f 21//1 80//1 81//1
f 22//1 80//1 21//1
f 22//1 79//1 80//1
f 22//1 78//1 79//1
f 23//1 78//1 22//1
f 23//1 77//1 78//1
f 23//1 76//1 77//1
f 24//1 76//1 23//1
f 24//1 75//1 76//1
f 25//1 75//1 24//1
f 25//1 74//1 75//1
f 25//1 73//1 74//1
f 26//1 73//1 25//1
f 26//1 72//1 73//1
f 27//1 72//1 26//1
f 27//1 71//1 72//1
f 27//1 70//1 71//1
f 28//1 70//1 27//1
f 28//1 69//1 70//1
f 28//1 68//1 69//1
f 29//1 68//1 28//1
f 29//1 67//1 68//1
f 51//1 49//1 50//1
f 29//1 66//1 67//1
f 52//1 49//1 51//1
f 30//1 66//1 29//1
f 53//1 49//1 52//1
f 30//1 65//1 66//1
f 54//1 49//1 53//1
f 55//1 49//1 54//1
f 56//1 49//1 55//1
f 30//1 64//1 65//1
f 57//1 49//1 56//1
f 58//1 49//1 57//1
f 30//1 63//1 64//1
f 59//1 49//1 58//1
f 60//1 49//1 59//1
f 30//1 62//1 63//1
f 61//1 49//1 60//1
f 31//1 62//1 30//1
f 62//1 49//1 61//1
f 31//1 49//1 62//1
f 32//1 49//1 31//1
f 33//1 49//1 32//1
f 34//1 49//1 33//1
f 34//1 48//1 49//1
f 34//1 47//1 48//1
f 34//1 46//1 47//1
f 35//1 46//1 34//1
f 35//1 45//1 46//1
f 35//1 44//1 45//1
f 35//1 43//1 44//1
f 35//1 42//1 43//1
f 36//1 42//1 35//1
f 36//1 41//1 42//1
f 36//1 40//1 41//1
f 36//1 39//1 40//1
f 37//1 39//1 36//1
f 37//1 38//1 39//1
