# Blender v2.69 (sub 0) OBJ File: ''
# www.blender.org
mtllib E.mtl
o Text
v 0.462000 0.682000 -0.000000
v 0.075000 0.682000 -0.000000
v 0.075000 0.000000 0.000000
v 0.471000 0.000000 0.000000
v 0.471000 0.088000 -0.000000
v 0.173000 0.088000 -0.000000
v 0.173000 0.300000 -0.000000
v 0.452000 0.300000 -0.000000
v 0.452000 0.388000 -0.000000
v 0.173000 0.388000 -0.000000
v 0.173000 0.594000 -0.000000
v 0.462000 0.594000 -0.000000
vn 0.000000 0.000000 1.000000
usemtl None
s off
f 3//1 11//1 2//1
f 11//1 1//1 2//1
f 11//1 12//1 1//1
f 3//1 10//1 11//1
f 3//1 7//1 10//1
f 7//1 9//1 10//1
f 7//1 8//1 9//1
f 3//1 6//1 7//1
f 3//1 5//1 6//1
f 3//1 4//1 5//1
