# Blender v2.69 (sub 0) OBJ File: ''
# www.blender.org
mtllib i.mtl
o Text
v 0.154000 0.449000 -0.000000
v 0.065000 0.449000 -0.000000
v 0.065000 0.000000 0.000000
v 0.154000 0.000000 0.000000
v 0.163000 0.585000 -0.000000
v 0.162511 0.592135 -0.000000
v 0.161088 0.598995 -0.000000
v 0.158797 0.605516 -0.000000
v 0.155704 0.611630 -0.000000
v 0.151874 0.617271 -0.000000
v 0.147375 0.622375 -0.000000
v 0.142271 0.626875 -0.000000
v 0.136630 0.630704 -0.000000
v 0.130516 0.633797 -0.000000
v 0.123995 0.636088 -0.000000
v 0.117135 0.637511 -0.000000
v 0.110000 0.638000 -0.000000
v 0.102865 0.637511 -0.000000
v 0.096005 0.636088 -0.000000
v 0.089484 0.633797 -0.000000
v 0.083370 0.630704 -0.000000
v 0.077729 0.626874 -0.000000
v 0.072625 0.622375 -0.000000
v 0.068126 0.617271 -0.000000
v 0.064296 0.611630 -0.000000
v 0.061203 0.605516 -0.000000
v 0.058912 0.598995 -0.000000
v 0.057489 0.592135 -0.000000
v 0.057000 0.585000 -0.000000
v 0.057489 0.577865 -0.000000
v 0.058912 0.571005 -0.000000
v 0.061203 0.564484 -0.000000
v 0.064296 0.558370 -0.000000
v 0.068126 0.552729 -0.000000
v 0.072625 0.547625 -0.000000
v 0.077729 0.543126 -0.000000
v 0.083370 0.539296 -0.000000
v 0.089484 0.536203 -0.000000
v 0.096005 0.533912 -0.000000
v 0.102865 0.532489 -0.000000
v 0.110000 0.532000 -0.000000
v 0.117135 0.532489 -0.000000
v 0.123995 0.533912 -0.000000
v 0.130516 0.536203 -0.000000
v 0.136630 0.539296 -0.000000
v 0.142271 0.543126 -0.000000
v 0.147375 0.547625 -0.000000
v 0.151874 0.552729 -0.000000
v 0.155704 0.558370 -0.000000
v 0.158797 0.564484 -0.000000
v 0.161088 0.571005 -0.000000
v 0.162511 0.577865 -0.000000
vn 0.000000 0.000000 1.000000
usemtl None
s off
f 18//1 16//1 17//1
f 18//1 15//1 16//1
f 19//1 15//1 18//1
f 19//1 14//1 15//1
f 20//1 14//1 19//1
f 20//1 13//1 14//1
f 21//1 13//1 20//1
f 21//1 12//1 13//1
f 22//1 12//1 21//1
f 22//1 11//1 12//1
f 23//1 11//1 22//1
f 23//1 10//1 11//1
f 24//1 10//1 23//1
f 24//1 9//1 10//1
f 25//1 9//1 24//1
f 25//1 8//1 9//1
f 26//1 8//1 25//1
f 26//1 7//1 8//1
f 27//1 7//1 26//1
f 27//1 6//1 7//1
f 28//1 6//1 27//1
f 28//1 5//1 6//1
f 29//1 5//1 28//1
f 30//1 5//1 29//1
f 30//1 52//1 5//1
f 30//1 51//1 52//1
f 31//1 51//1 30//1
f 31//1 50//1 51//1
f 32//1 50//1 31//1
f 32//1 49//1 50//1
f 33//1 49//1 32//1
f 33//1 48//1 49//1
f 34//1 48//1 33//1
f 34//1 47//1 48//1
f 35//1 47//1 34//1
f 35//1 46//1 47//1
f 36//1 46//1 35//1
f 36//1 45//1 46//1
f 37//1 45//1 36//1
f 37//1 44//1 45//1
f 38//1 44//1 37//1
f 38//1 43//1 44//1
f 39//1 43//1 38//1
f 39//1 42//1 43//1
f 40//1 42//1 39//1
f 40//1 41//1 42//1
f 3//1 1//1 2//1
f 3//1 4//1 1//1
