# Blender v2.69 (sub 0) OBJ File: ''
# www.blender.org
mtllib J.mtl
o Text
v 0.174000 0.682000 -0.000000
v 0.076000 0.682000 -0.000000
v 0.076000 0.021000 -0.000000
v 0.075763 -0.004376 0.000000
v 0.074852 -0.027509 0.000000
v 0.072969 -0.048406 0.000000
v 0.069815 -0.067074 0.000000
v 0.065091 -0.083520 0.000000
v 0.058500 -0.097750 0.000000
v 0.049742 -0.109772 0.000000
v 0.038519 -0.119593 0.000000
v 0.024531 -0.127219 0.000000
v 0.007481 -0.132657 0.000000
v -0.012929 -0.135916 0.000000
v -0.037000 -0.137000 0.000000
v -0.062000 -0.137000 0.000000
v -0.044000 -0.228000 0.000000
v -0.041538 -0.228249 0.000000
v -0.039139 -0.228495 0.000000
v -0.036781 -0.228734 0.000000
v -0.034444 -0.228963 0.000000
v -0.032108 -0.229178 0.000000
v -0.029750 -0.229375 0.000000
v -0.027351 -0.229551 0.000000
v -0.024889 -0.229704 0.000000
v -0.022344 -0.229828 0.000000
v -0.019694 -0.229921 0.000000
v -0.016920 -0.229980 0.000000
v -0.014000 -0.230000 0.000000
v 0.018479 -0.228057 0.000000
v 0.047495 -0.222375 0.000000
v 0.073172 -0.213172 0.000000
v 0.095630 -0.200667 0.000000
v 0.114990 -0.185078 0.000000
v 0.131375 -0.166625 0.000000
v 0.144906 -0.145526 0.000000
v 0.155704 -0.122000 0.000000
v 0.163891 -0.096266 0.000000
v 0.169588 -0.068542 0.000000
v 0.172917 -0.039047 0.000000
v 0.174000 -0.008000 0.000000
vn 0.000000 0.000000 1.000000
usemtl None
s off
f 3//1 1//1 2//1
f 3//1 41//1 1//1
f 4//1 41//1 3//1
f 5//1 41//1 4//1
f 5//1 40//1 41//1
f 6//1 40//1 5//1
f 6//1 39//1 40//1
f 7//1 39//1 6//1
f 8//1 39//1 7//1
f 8//1 38//1 39//1
f 9//1 38//1 8//1
f 9//1 37//1 38//1
f 10//1 37//1 9//1
f 11//1 37//1 10//1
f 12//1 37//1 11//1
f 12//1 36//1 37//1
f 13//1 36//1 12//1
f 14//1 36//1 13//1
f 15//1 36//1 14//1
f 17//1 15//1 16//1
f 17//1 36//1 15//1
f 17//1 35//1 36//1
f 17//1 34//1 35//1
f 17//1 33//1 34//1
f 17//1 32//1 33//1
f 17//1 31//1 32//1
f 17//1 30//1 31//1
f 18//1 30//1 17//1
f 18//1 29//1 30//1
f 19//1 29//1 18//1
f 20//1 29//1 19//1
f 21//1 29//1 20//1
f 22//1 29//1 21//1
f 23//1 29//1 22//1
f 24//1 29//1 23//1
f 25//1 29//1 24//1
f 26//1 29//1 25//1
f 27//1 29//1 26//1
f 28//1 29//1 27//1
