# Blender v2.69 (sub 0) OBJ File: ''
# www.blender.org
mtllib m.mtl
o Text
v 0.059000 0.449000 -0.000000
v 0.059000 0.000000 0.000000
v 0.148000 0.000000 0.000000
v 0.148000 0.326000 -0.000000
v 0.157117 0.336155 -0.000000
v 0.166019 0.345153 -0.000000
v 0.174781 0.353047 -0.000000
v 0.183481 0.359889 -0.000000
v 0.192196 0.365731 -0.000000
v 0.201000 0.370625 -0.000000
v 0.209971 0.374623 -0.000000
v 0.219185 0.377778 -0.000000
v 0.228719 0.380141 -0.000000
v 0.238648 0.381764 -0.000000
v 0.249050 0.382700 -0.000000
v 0.260000 0.383000 -0.000000
v 0.270837 0.382348 -0.000000
v 0.281278 0.380366 -0.000000
v 0.291219 0.377016 -0.000000
v 0.300556 0.372259 -0.000000
v 0.309184 0.366058 -0.000000
v 0.317000 0.358375 -0.000000
v 0.323899 0.349171 -0.000000
v 0.329778 0.338407 -0.000000
v 0.334531 0.326047 -0.000000
v 0.338056 0.312051 -0.000000
v 0.340247 0.296381 -0.000000
v 0.341000 0.279000 -0.000000
v 0.341000 0.000000 0.000000
v 0.430000 0.000000 0.000000
v 0.430000 0.326000 -0.000000
v 0.438136 0.334073 -0.000000
v 0.446505 0.341750 -0.000000
v 0.455047 0.348969 -0.000000
v 0.463704 0.355667 -0.000000
v 0.472416 0.361781 -0.000000
v 0.481125 0.367250 -0.000000
v 0.489771 0.372010 -0.000000
v 0.498296 0.376000 -0.000000
v 0.506641 0.379156 -0.000000
v 0.514745 0.381417 -0.000000
v 0.522552 0.382719 -0.000000
v 0.530000 0.383000 -0.000000
v 0.542543 0.382233 -0.000000
v 0.554597 0.379944 -0.000000
v 0.566047 0.376156 -0.000000
v 0.576778 0.370889 -0.000000
v 0.586675 0.364163 -0.000000
v 0.595625 0.356000 -0.000000
v 0.603512 0.346420 -0.000000
v 0.610222 0.335444 -0.000000
v 0.615641 0.323094 -0.000000
v 0.619653 0.309389 -0.000000
v 0.622144 0.294351 -0.000000
v 0.623000 0.278000 -0.000000
v 0.623000 0.000000 0.000000
v 0.712000 0.000000 0.000000
v 0.712000 0.282000 -0.000000
v 0.710806 0.307730 -0.000000
v 0.707282 0.331843 -0.000000
v 0.701516 0.354219 -0.000000
v 0.693593 0.374741 -0.000000
v 0.683600 0.393291 -0.000000
v 0.671625 0.409750 -0.000000
v 0.657754 0.424001 -0.000000
v 0.642074 0.435926 -0.000000
v 0.624672 0.445406 -0.000000
v 0.605634 0.452324 -0.000000
v 0.585048 0.456561 -0.000000
v 0.563000 0.458000 -0.000000
v 0.547349 0.457247 -0.000000
v 0.532375 0.455056 -0.000000
v 0.518047 0.451531 -0.000000
v 0.504333 0.446778 -0.000000
v 0.491203 0.440899 -0.000000
v 0.478625 0.434000 -0.000000
v 0.466568 0.426184 -0.000000
v 0.455000 0.417556 -0.000000
v 0.443891 0.408219 -0.000000
v 0.433208 0.398278 -0.000000
v 0.422922 0.387837 -0.000000
v 0.413000 0.377000 -0.000000
v 0.405150 0.389727 -0.000000
v 0.396616 0.401403 -0.000000
v 0.387422 0.412016 -0.000000
v 0.377593 0.421556 -0.000000
v 0.367152 0.430012 -0.000000
v 0.356125 0.437375 -0.000000
v 0.344535 0.443634 -0.000000
v 0.332407 0.448778 -0.000000
v 0.319766 0.452797 -0.000000
v 0.306634 0.455681 -0.000000
v 0.293038 0.457418 -0.000000
v 0.279000 0.458000 -0.000000
v 0.268478 0.457541 -0.000000
v 0.257907 0.456157 -0.000000
v 0.247281 0.453844 -0.000000
v 0.236593 0.450593 -0.000000
v 0.225835 0.446397 -0.000000
v 0.215000 0.441250 -0.000000
v 0.204082 0.435145 -0.000000
v 0.193074 0.428074 -0.000000
v 0.181969 0.420031 -0.000000
v 0.170759 0.411009 -0.000000
v 0.159439 0.401001 -0.000000
v 0.148000 0.390000 -0.000000
v 0.148000 0.449000 -0.000000
vn 0.000000 0.000000 1.000000
usemtl None
s off
f 95//1 93//1 94//1
f 71//1 69//1 70//1
f 96//1 93//1 95//1
f 96//1 92//1 93//1
f 72//1 69//1 71//1
f 72//1 68//1 69//1
f 97//1 92//1 96//1
f 97//1 91//1 92//1
f 73//1 68//1 72//1
f 98//1 91//1 97//1
f 98//1 90//1 91//1
f 73//1 67//1 68//1
f 74//1 67//1 73//1
f 99//1 90//1 98//1
f 2//1 107//1 1//1
f 2//1 106//1 107//1
f 99//1 89//1 90//1
f 75//1 67//1 74//1
f 100//1 89//1 99//1
f 75//1 66//1 67//1
f 100//1 88//1 89//1
f 101//1 88//1 100//1
f 76//1 66//1 75//1
f 101//1 87//1 88//1
f 76//1 65//1 66//1
f 102//1 87//1 101//1
f 77//1 65//1 76//1
f 102//1 86//1 87//1
f 103//1 86//1 102//1
f 78//1 65//1 77//1
f 78//1 64//1 65//1
f 103//1 85//1 86//1
f 104//1 85//1 103//1
f 79//1 64//1 78//1
f 104//1 84//1 85//1
f 105//1 84//1 104//1
f 79//1 63//1 64//1
f 80//1 63//1 79//1
f 105//1 83//1 84//1
f 106//1 83//1 105//1
f 81//1 63//1 80//1
f 81//1 43//1 63//1
f 43//1 62//1 63//1
f 2//1 4//1 106//1
f 4//1 5//1 106//1
f 5//1 6//1 106//1
f 6//1 7//1 106//1
f 7//1 8//1 106//1
f 8//1 9//1 106//1
f 9//1 10//1 106//1
f 10//1 11//1 106//1
f 11//1 12//1 106//1
f 12//1 13//1 106//1
f 13//1 14//1 106//1
f 14//1 15//1 106//1
f 15//1 83//1 106//1
f 15//1 16//1 83//1
f 16//1 82//1 83//1
f 82//1 42//1 81//1
f 42//1 43//1 81//1
f 17//1 82//1 16//1
f 44//1 62//1 43//1
f 82//1 41//1 42//1
f 18//1 82//1 17//1
f 45//1 62//1 44//1
f 82//1 40//1 41//1
f 19//1 82//1 18//1
f 46//1 62//1 45//1
f 82//1 39//1 40//1
f 20//1 82//1 19//1
f 20//1 39//1 82//1
f 47//1 62//1 46//1
f 20//1 38//1 39//1
f 47//1 61//1 62//1
f 21//1 38//1 20//1
f 21//1 37//1 38//1
f 48//1 61//1 47//1
f 21//1 36//1 37//1
f 22//1 36//1 21//1
f 49//1 61//1 48//1
f 22//1 35//1 36//1
f 23//1 35//1 22//1
f 50//1 61//1 49//1
f 23//1 34//1 35//1
f 50//1 60//1 61//1
f 24//1 34//1 23//1
f 24//1 33//1 34//1
f 51//1 60//1 50//1
f 24//1 32//1 33//1
f 25//1 32//1 24//1
f 52//1 60//1 51//1
f 25//1 31//1 32//1
f 52//1 59//1 60//1
f 26//1 31//1 25//1
f 2//1 3//1 4//1
f 26//1 30//1 31//1
f 53//1 59//1 52//1
f 27//1 30//1 26//1
f 54//1 59//1 53//1
f 54//1 58//1 59//1
f 28//1 30//1 27//1
f 55//1 58//1 54//1
f 55//1 57//1 58//1
f 29//1 30//1 28//1
f 56//1 57//1 55//1
