# Blender v2.69 (sub 0) OBJ File: ''
# www.blender.org
mtllib N.mtl
o Text
v 0.706000 0.682000 -0.000000
v 0.614000 0.682000 -0.000000
v 0.614000 0.154000 -0.000000
v 0.152000 0.682000 -0.000000
v 0.074000 0.682000 -0.000000
v 0.074000 0.000000 0.000000
v 0.166000 0.000000 0.000000
v 0.166000 0.525000 -0.000000
v 0.622000 0.000000 0.000000
v 0.706000 0.000000 0.000000
vn 0.000000 0.000000 1.000000
usemtl None
s off
f 6//1 4//1 5//1
f 6//1 8//1 4//1
f 8//1 3//1 4//1
f 3//1 1//1 2//1
f 3//1 10//1 1//1
f 6//1 7//1 8//1
f 9//1 3//1 8//1
f 9//1 10//1 3//1
