# Blender v2.69 (sub 0) OBJ File: ''
# www.blender.org
mtllib t.mtl
o Text
v 0.167000 0.542000 -0.000000
v 0.000000 0.379000 -0.000000
v 0.000000 0.369000 -0.000000
v 0.078000 0.369000 -0.000000
v 0.078000 0.132000 -0.000000
v 0.079020 0.112210 -0.000000
v 0.082079 0.093431 -0.000000
v 0.087172 0.075797 -0.000000
v 0.094296 0.059444 -0.000000
v 0.103448 0.044509 -0.000000
v 0.114625 0.031125 -0.000000
v 0.127822 0.019429 -0.000000
v 0.143037 0.009556 -0.000000
v 0.160266 0.001641 -0.000000
v 0.179505 -0.004181 0.000000
v 0.200751 -0.007773 0.000000
v 0.224000 -0.009000 0.000000
v 0.231625 -0.008734 0.000000
v 0.239917 -0.007958 0.000000
v 0.248750 -0.006703 0.000000
v 0.258000 -0.005000 0.000000
v 0.267542 -0.002880 0.000000
v 0.277250 -0.000375 0.000000
v 0.287000 0.002484 -0.000000
v 0.296667 0.005667 -0.000000
v 0.306125 0.009141 -0.000000
v 0.315250 0.012875 -0.000000
v 0.323917 0.016839 -0.000000
v 0.332000 0.021000 -0.000000
v 0.332000 0.104000 -0.000000
v 0.323061 0.098729 -0.000000
v 0.314241 0.093917 -0.000000
v 0.305531 0.089563 -0.000000
v 0.296926 0.085667 -0.000000
v 0.288418 0.082229 -0.000000
v 0.280000 0.079250 -0.000000
v 0.271666 0.076729 -0.000000
v 0.263407 0.074667 -0.000000
v 0.255219 0.073063 -0.000000
v 0.247093 0.071917 -0.000000
v 0.239022 0.071229 -0.000000
v 0.231000 0.071000 -0.000000
v 0.224279 0.071326 -0.000000
v 0.217231 0.072356 -0.000000
v 0.210031 0.074172 -0.000000
v 0.202852 0.076852 -0.000000
v 0.195867 0.080476 -0.000000
v 0.189250 0.085125 -0.000000
v 0.183175 0.090878 -0.000000
v 0.177815 0.097815 -0.000000
v 0.173344 0.106016 -0.000000
v 0.169935 0.115560 -0.000000
v 0.167763 0.126528 -0.000000
v 0.167000 0.139000 -0.000000
v 0.167000 0.369000 -0.000000
v 0.309000 0.369000 -0.000000
v 0.309000 0.449000 -0.000000
v 0.167000 0.449000 -0.000000
vn 0.000000 0.000000 1.000000
usemtl None
s off
f 2//1 58//1 1//1
f 2//1 57//1 58//1
f 2//1 56//1 57//1
f 3//1 56//1 2//1
f 4//1 56//1 3//1
f 5//1 55//1 4//1
f 55//1 56//1 4//1
f 5//1 54//1 55//1
f 5//1 53//1 54//1
f 6//1 53//1 5//1
f 6//1 52//1 53//1
f 6//1 51//1 52//1
f 7//1 51//1 6//1
f 7//1 50//1 51//1
f 31//1 29//1 30//1
f 32//1 29//1 31//1
f 7//1 49//1 50//1
f 33//1 29//1 32//1
f 8//1 49//1 7//1
f 8//1 48//1 49//1
f 34//1 29//1 33//1
f 35//1 29//1 34//1
f 8//1 47//1 48//1
f 36//1 29//1 35//1
f 8//1 46//1 47//1
f 37//1 29//1 36//1
f 8//1 45//1 46//1
f 38//1 29//1 37//1
f 9//1 45//1 8//1
f 39//1 29//1 38//1
f 9//1 44//1 45//1
f 40//1 29//1 39//1
f 9//1 43//1 44//1
f 41//1 29//1 40//1
f 9//1 42//1 43//1
f 42//1 29//1 41//1
f 9//1 29//1 42//1
f 10//1 29//1 9//1
f 11//1 29//1 10//1
f 12//1 29//1 11//1
f 12//1 28//1 29//1
f 13//1 28//1 12//1
f 13//1 27//1 28//1
f 13//1 26//1 27//1
f 14//1 26//1 13//1
f 14//1 25//1 26//1
f 14//1 24//1 25//1
f 14//1 23//1 24//1
f 15//1 23//1 14//1
f 15//1 22//1 23//1
f 15//1 21//1 22//1
f 16//1 21//1 15//1
f 16//1 20//1 21//1
f 16//1 19//1 20//1
f 17//1 19//1 16//1
f 17//1 18//1 19//1
