# Blender v2.69 (sub 0) OBJ File: ''
# www.blender.org
mtllib u.mtl
o Text
v 0.437000 0.000000 0.000000
v 0.437000 0.449000 -0.000000
v 0.348000 0.449000 -0.000000
v 0.348000 0.128000 -0.000000
v 0.340567 0.118148 -0.000000
v 0.332782 0.109097 -0.000000
v 0.324672 0.100859 -0.000000
v 0.316259 0.093444 -0.000000
v 0.307569 0.086863 -0.000000
v 0.298625 0.081125 -0.000000
v 0.289452 0.076241 -0.000000
v 0.280074 0.072222 -0.000000
v 0.270516 0.069078 -0.000000
v 0.260801 0.066819 -0.000000
v 0.250954 0.065457 -0.000000
v 0.241000 0.065000 -0.000000
v 0.226376 0.065745 -0.000000
v 0.213005 0.067958 -0.000000
v 0.200891 0.071609 -0.000000
v 0.190037 0.076667 -0.000000
v 0.180447 0.083099 -0.000000
v 0.172125 0.090875 -0.000000
v 0.165074 0.099964 -0.000000
v 0.159296 0.110333 -0.000000
v 0.154797 0.121953 -0.000000
v 0.151579 0.134792 -0.000000
v 0.149645 0.148818 -0.000000
v 0.149000 0.164000 -0.000000
v 0.149000 0.449000 -0.000000
v 0.060000 0.449000 -0.000000
v 0.060000 0.170000 -0.000000
v 0.061312 0.142530 -0.000000
v 0.065162 0.117157 -0.000000
v 0.071422 0.093938 -0.000000
v 0.079963 0.072926 -0.000000
v 0.090657 0.054178 -0.000000
v 0.103375 0.037750 -0.000000
v 0.117989 0.023697 -0.000000
v 0.134370 0.012074 -0.000000
v 0.152391 0.002938 -0.000000
v 0.171921 -0.003657 0.000000
v 0.192834 -0.007655 0.000000
v 0.215000 -0.009000 0.000000
v 0.226153 -0.008465 0.000000
v 0.237560 -0.006889 0.000000
v 0.249141 -0.004312 0.000000
v 0.260815 -0.000778 0.000000
v 0.272503 0.003674 -0.000000
v 0.284125 0.009000 -0.000000
v 0.295601 0.015160 -0.000000
v 0.306852 0.022111 -0.000000
v 0.317797 0.029812 -0.000000
v 0.328357 0.038222 -0.000000
v 0.338451 0.047299 -0.000000
v 0.348000 0.057000 -0.000000
v 0.348000 0.000000 0.000000
vn 0.000000 0.000000 1.000000
usemtl None
s off
f 31//1 29//1 30//1
f 31//1 28//1 29//1
f 4//1 2//1 3//1
f 4//1 1//1 2//1
f 32//1 28//1 31//1
f 32//1 27//1 28//1
f 32//1 26//1 27//1
f 33//1 26//1 32//1
f 33//1 25//1 26//1
f 5//1 1//1 4//1
f 33//1 24//1 25//1
f 6//1 1//1 5//1
f 34//1 24//1 33//1
f 34//1 23//1 24//1
f 7//1 1//1 6//1
f 8//1 1//1 7//1
f 34//1 22//1 23//1
f 35//1 22//1 34//1
f 9//1 1//1 8//1
f 35//1 21//1 22//1
f 10//1 55//1 9//1
f 55//1 1//1 9//1
f 35//1 20//1 21//1
f 11//1 55//1 10//1
f 35//1 19//1 20//1
f 12//1 55//1 11//1
f 36//1 19//1 35//1
f 13//1 55//1 12//1
f 36//1 18//1 19//1
f 14//1 55//1 13//1
f 36//1 17//1 18//1
f 15//1 55//1 14//1
f 36//1 16//1 17//1
f 16//1 55//1 15//1
f 36//1 55//1 16//1
f 36//1 54//1 55//1
f 56//1 1//1 55//1
f 37//1 54//1 36//1
f 37//1 53//1 54//1
f 37//1 52//1 53//1
f 38//1 52//1 37//1
f 38//1 51//1 52//1
f 39//1 51//1 38//1
f 39//1 50//1 51//1
f 39//1 49//1 50//1
f 40//1 49//1 39//1
f 40//1 48//1 49//1
f 40//1 47//1 48//1
f 41//1 47//1 40//1
f 41//1 46//1 47//1
f 42//1 46//1 41//1
f 42//1 45//1 46//1
f 42//1 44//1 45//1
f 43//1 44//1 42//1
